RobotoSerifDisplay-RegularWdth150 00m.ufo
<glyph name="exclam" format="2">
  <advance width="194"/>
  <unicode hex="0021"/>
  <outline>
    <contour>
      <point x="142.6325" y="734.75" type="line"/>
      <point x="142.6325" y="569.0340401785714"/>
      <point x="111.17750000000001" y="467.8504017857143"/>
      <point x="111.17750000000001" y="210.7" type="curve"/>
      <point x="83.44" y="210.7" type="line"/>
      <point x="83.44" y="467.8504017857143"/>
      <point x="51.985" y="568.0350446428572"/>
      <point x="51.985" y="734.75" type="curve"/>
    </contour>
    <component base="period" xOffset="-22.34"/>
  </outline>
</glyph>
<glyph name="quotesingle" format="2">
  <advance width="180"/>
  <unicode hex="0027"/>
  <outline>
    <contour>
      <point x="130" y="710" type="line"/>
      <point x="130" y="636"/>
      <point x="104" y="598"/>
      <point x="104" y="503" type="curve"/>
      <point x="76" y="503" type="line"/>
      <point x="76" y="598"/>
      <point x="50" y="635"/>
      <point x="50" y="710" type="curve"/>
    </contour>
  </outline>
</glyph>
<glyph name="zero" format="2">
  <advance width="404"/>
  <unicode hex="0030"/>
  <outline>
    <contour>
      <point x="202" y="-10" type="curve" smooth="yes"/>
      <point x="304.0" y="-10.0"/>
      <point x="379" y="93"/>
      <point x="379" y="305" type="curve" smooth="yes"/>
      <point x="379.0" y="516.0"/>
      <point x="304" y="619"/>
      <point x="202" y="619" type="curve" smooth="yes"/>
      <point x="100" y="619"/>
      <point x="25" y="516"/>
      <point x="25" y="305" type="curve" smooth="yes"/>
      <point x="25" y="93"/>
      <point x="100" y="-10"/>
    </contour>
    <contour>
      <point x="202" y="20" type="curve" smooth="yes"/>
      <point x="140.0" y="20"/>
      <point x="107" y="104"/>
      <point x="107" y="305" type="curve" smooth="yes"/>
      <point x="107" y="505"/>
      <point x="140" y="589"/>
      <point x="202" y="589" type="curve" smooth="yes"/>
      <point x="264" y="589"/>
      <point x="297" y="505"/>
      <point x="297" y="305" type="curve" smooth="yes"/>
      <point x="297" y="104"/>
      <point x="264" y="20"/>
    </contour>
  </outline>
</glyph>
<glyph name="three" format="2">
  <advance width="407"/>
  <unicode hex="0033"/>
  <guideline x="52" y="58" angle="283.276397042316" identifier="uu6tY1C5IY"/>
  <outline>
    <contour>
      <point x="189.0" y="-90.0" type="curve" smooth="yes"/>
      <point x="95" y="-90"/>
      <point x="31" y="-42"/>
      <point x="10" y="47" type="curve"/>
      <point x="42" y="58" type="line"/>
      <point x="58" y="-10"/>
      <point x="101" y="-58"/>
      <point x="181.0" y="-58.0" type="curve" smooth="yes"/>
      <point x="275" y="-58"/>
      <point x="307" y="9"/>
      <point x="307" y="107" type="curve" smooth="yes"/>
      <point x="307" y="222"/>
      <point x="263" y="269"/>
      <point x="179" y="269" type="curve" smooth="yes"/>
      <point x="137" y="269" type="line"/>
      <point x="137" y="299" type="line"/>
      <point x="172" y="299" type="line" smooth="yes"/>
      <point x="241" y="299"/>
      <point x="285" y="347"/>
      <point x="285" y="456" type="curve" smooth="yes"/>
      <point x="285" y="557"/>
      <point x="247" y="589"/>
      <point x="190" y="589" type="curve" smooth="yes"/>
      <point x="143" y="589"/>
      <point x="111" y="568"/>
      <point x="93" y="524" type="curve"/>
      <point x="95" y="539"/>
      <point x="110" y="574"/>
      <point x="126" y="576" type="curve"/>
      <point x="126" y="458" type="line"/>
      <point x="56" y="458" type="line"/>
      <point x="56" y="549" type="line"/>
      <point x="79" y="584"/>
      <point x="128" y="619"/>
      <point x="201" y="619" type="curve" smooth="yes"/>
      <point x="294" y="619"/>
      <point x="365" y="562"/>
      <point x="365" y="459" type="curve" smooth="yes"/>
      <point x="365" y="345"/>
      <point x="279" y="281"/>
      <point x="177" y="281" type="curve"/>
      <point x="208" y="294" type="line"/>
      <point x="207" y="280" type="line"/>
      <point x="190" y="291" type="line"/>
      <point x="314" y="291"/>
      <point x="387" y="222"/>
      <point x="387" y="108" type="curve" smooth="yes"/>
      <point x="387" y="-8"/>
      <point x="310" y="-90"/>
    </contour>
  </outline>
</glyph>
<glyph name="five" format="2">
  <advance width="388"/>
  <unicode hex="0035"/>
  <guideline x="52" y="48" angle="284.70830389968273" identifier="VyGXDUaswS"/>
  <outline>
    <contour>
      <point x="182" y="-90" type="curve" smooth="yes"/>
      <point x="99" y="-90"/>
      <point x="41" y="-44"/>
      <point x="20" y="37" type="curve"/>
      <point x="52" y="48" type="line"/>
      <point x="70" y="-20"/>
      <point x="115" y="-57"/>
      <point x="171" y="-57.0" type="curve" smooth="yes"/>
      <point x="256" y="-57"/>
      <point x="288" y="14"/>
      <point x="288" y="148" type="curve" smooth="yes"/>
      <point x="288" y="258"/>
      <point x="265" y="332"/>
      <point x="186" y="332" type="curve" smooth="yes"/>
      <point x="152" y="332"/>
      <point x="109" y="318"/>
      <point x="83" y="258" type="curve"/>
      <point x="60" y="258" type="line"/>
      <point x="60" y="609" type="line"/>
      <point x="347" y="609" type="line"/>
      <point x="336" y="539" type="line"/>
      <point x="75" y="539" type="line"/>
      <point x="101" y="589" type="line"/>
      <point x="101" y="296" type="line"/>
      <point x="99" y="283"/>
      <point x="83" y="278"/>
      <point x="80" y="286" type="curve"/>
      <point x="107" y="347"/>
      <point x="155" y="366"/>
      <point x="205" y="366" type="curve" smooth="yes"/>
      <point x="320" y="366"/>
      <point x="368" y="265"/>
      <point x="368" y="148" type="curve" smooth="yes"/>
      <point x="368" y="7"/>
      <point x="302" y="-90"/>
    </contour>
  </outline>
</glyph>
<glyph name="six" format="2">
  <advance width="395"/>
  <unicode hex="0036"/>
  <outline>
    <contour>
      <point x="321" y="720" type="line"/>
      <point x="191" y="666"/>
      <point x="105" y="512"/>
      <point x="105" y="279" type="curve" smooth="yes"/>
      <point x="105" y="104"/>
      <point x="150" y="20"/>
      <point x="205" y="20" type="curve" smooth="yes"/>
      <point x="264" y="20"/>
      <point x="295" y="98"/>
      <point x="295" y="231" type="curve" smooth="yes"/>
      <point x="295" y="352"/>
      <point x="269" y="419"/>
      <point x="207" y="419" type="curve" smooth="yes"/>
      <point x="165" y="419"/>
      <point x="122" y="387"/>
      <point x="100" y="287" type="curve"/>
      <point x="101" y="297"/>
      <point x="93" y="308"/>
      <point x="91" y="314" type="curve"/>
      <point x="109" y="407"/>
      <point x="156" y="453"/>
      <point x="225" y="453" type="curve" smooth="yes"/>
      <point x="315" y="453"/>
      <point x="375" y="367"/>
      <point x="375" y="233" type="curve" smooth="yes"/>
      <point x="375" y="89"/>
      <point x="305" y="-10"/>
      <point x="205" y="-10" type="curve" smooth="yes"/>
      <point x="105" y="-10"/>
      <point x="25" y="95"/>
      <point x="25" y="287" type="curve" smooth="yes"/>
      <point x="25" y="520"/>
      <point x="145" y="682"/>
      <point x="317" y="740" type="curve"/>
    </contour>
  </outline>
</glyph>
<glyph name="seven" format="2">
  <advance width="381"/>
  <unicode hex="0037"/>
  <outline>
    <contour>
      <point x="152" y="539" type="line" smooth="yes"/>
      <point x="94" y="539"/>
      <point x="79" y="530"/>
      <point x="70" y="483" type="curve" smooth="yes"/>
      <point x="54" y="401" type="line"/>
      <point x="30" y="401" type="line"/>
      <point x="30" y="609" type="line"/>
      <point x="366" y="609" type="line"/>
      <point x="366" y="558" type="line"/>
      <point x="286" y="395"/>
      <point x="224" y="254"/>
      <point x="199" y="-77" type="curve"/>
      <point x="119" y="-77" type="line"/>
      <point x="152" y="227"/>
      <point x="305" y="504"/>
      <point x="348" y="569" type="curve"/>
      <point x="351" y="539" type="line"/>
    </contour>
  </outline>
</glyph>
<glyph name="eight" format="2">
  <advance width="406"/>
  <unicode hex="0038"/>
  <outline>
    <contour>
      <point x="203" y="-10" type="curve" smooth="yes"/>
      <point x="305" y="-10"/>
      <point x="381" y="67"/>
      <point x="381" y="193" type="curve" smooth="yes"/>
      <point x="381" y="293"/>
      <point x="336" y="360"/>
      <point x="239" y="389" type="curve"/>
      <point x="254" y="372" type="line"/>
      <point x="255" y="387" type="line"/>
      <point x="239" y="369" type="line"/>
      <point x="323" y="400"/>
      <point x="355" y="460"/>
      <point x="355" y="543" type="curve" smooth="yes"/>
      <point x="355" y="652"/>
      <point x="290" y="720"/>
      <point x="203" y="720" type="curve" smooth="yes"/>
      <point x="116" y="720"/>
      <point x="50" y="652"/>
      <point x="50" y="543" type="curve" smooth="yes"/>
      <point x="51" y="460"/>
      <point x="83" y="400"/>
      <point x="168" y="369" type="curve"/>
      <point x="154" y="389" type="line"/>
      <point x="154" y="369" type="line"/>
      <point x="169" y="389" type="line"/>
      <point x="70" y="360"/>
      <point x="25" y="292"/>
      <point x="25" y="193" type="curve" smooth="yes"/>
      <point x="25" y="68"/>
      <point x="100" y="-10"/>
    </contour>
    <contour>
      <point x="203" y="20" type="curve" smooth="yes"/>
      <point x="146" y="20"/>
      <point x="107" y="64"/>
      <point x="107" y="192" type="curve" smooth="yes"/>
      <point x="107" y="320"/>
      <point x="146" y="362"/>
      <point x="203" y="362" type="curve" smooth="yes"/>
      <point x="260" y="362"/>
      <point x="299" y="320"/>
      <point x="299" y="192" type="curve" smooth="yes"/>
      <point x="299" y="64"/>
      <point x="260" y="20"/>
    </contour>
    <contour>
      <point x="203" y="390" type="curve" smooth="yes"/>
      <point x="153" y="390"/>
      <point x="124" y="430"/>
      <point x="124" y="538" type="curve" smooth="yes"/>
      <point x="124" y="645"/>
      <point x="153" y="690"/>
      <point x="203" y="690" type="curve" smooth="yes"/>
      <point x="253" y="690"/>
      <point x="281" y="645"/>
      <point x="281" y="538" type="curve" smooth="yes"/>
      <point x="281" y="431"/>
      <point x="253" y="390"/>
    </contour>
  </outline>
</glyph>
<glyph name="nine" format="2">
  <advance width="391"/>
  <unicode hex="0039"/>
  <outline>
    <contour>
      <point x="72" y="-111" type="line"/>
      <point x="202" y="-57"/>
      <point x="286" y="127"/>
      <point x="286" y="370" type="curve" smooth="yes"/>
      <point x="286" y="540"/>
      <point x="246" y="589"/>
      <point x="196" y="589" type="curve" smooth="yes"/>
      <point x="134" y="589"/>
      <point x="100" y="517"/>
      <point x="100" y="388" type="curve" smooth="yes"/>
      <point x="100" y="280"/>
      <point x="124" y="212"/>
      <point x="185" y="212" type="curve" smooth="yes"/>
      <point x="228" y="212"/>
      <point x="270" y="244"/>
      <point x="290" y="344" type="curve"/>
      <point x="289" y="334"/>
      <point x="298" y="323"/>
      <point x="300" y="317" type="curve"/>
      <point x="283" y="222"/>
      <point x="234" y="178"/>
      <point x="165" y="178" type="curve" smooth="yes"/>
      <point x="78" y="178"/>
      <point x="20" y="255"/>
      <point x="20" y="383" type="curve" smooth="yes"/>
      <point x="20" y="525"/>
      <point x="91" y="619"/>
      <point x="196" y="619" type="curve" smooth="yes"/>
      <point x="282" y="619"/>
      <point x="366" y="545"/>
      <point x="366" y="356" type="curve" smooth="yes"/>
      <point x="366" y="119"/>
      <point x="248" y="-73"/>
      <point x="76" y="-131" type="curve"/>
    </contour>
  </outline>
</glyph>
<glyph name="question" format="2">
  <advance width="390"/>
  <unicode hex="003F"/>
  <outline>
    <contour>
      <point x="157.17249999999999" y="369.3" type="line"/>
      <point x="222.84125331839127" y="408.30401622843834"/>
      <point x="271.8275" y="436.847025"/>
      <point x="271.8275" y="569.6" type="curve" smooth="yes"/>
      <point x="271.8275" y="653.4534090909091"/>
      <point x="241.2025" y="711.85"/>
      <point x="180.6725" y="711.85" type="curve" smooth="yes"/>
      <point x="130.15" y="711.85"/>
      <point x="98.7075" y="672.55"/>
      <point x="79.175" y="638.2" type="curve"/>
      <point x="80.025" y="655.3"/>
      <point x="89.87" y="681.8"/>
      <point x="104.6175" y="686.55" type="curve"/>
      <point x="104.6175" y="567.8" type="line"/>
      <point x="36.5925" y="567.8" type="line"/>
      <point x="36.5925" y="666.95" type="line"/>
      <point x="59.3925" y="695.05"/>
      <point x="114.605" y="744.75"/>
      <point x="188.53" y="744.75" type="curve" smooth="yes"/>
      <point x="289.58" y="744.75"/>
      <point x="351.08" y="673.2975510204082"/>
      <point x="351.08" y="566.05" type="curve" smooth="yes"/>
      <point x="351.08" y="435.9589431818182"/>
      <point x="278.3229038473589" y="389.00306049856044"/>
      <point x="189.83249999999998" y="345.9" type="curve"/>
      <point x="189.83249999999998" y="210.7" type="line"/>
      <point x="157.17249999999999" y="210.7" type="line"/>
    </contour>
    <component base="period" xOffset="41.474999999999994" yOffset="-0.95"/>
  </outline>
</glyph>
<glyph name="E" format="2">
  <advance width="445"/>
  <unicode hex="0045"/>
  <outline>
    <contour>
      <point x="420" y="187" type="line"/>
      <point x="392" y="187" type="line"/>
      <point x="376" y="94" type="line" smooth="yes"/>
      <point x="368" y="50"/>
      <point x="348" y="33"/>
      <point x="288" y="33" type="curve" smooth="yes"/>
      <point x="165" y="33" type="line"/>
      <point x="165" y="677" type="line"/>
      <point x="277" y="677" type="line" smooth="yes"/>
      <point x="334" y="677"/>
      <point x="353" y="660"/>
      <point x="362" y="619" type="curve" smooth="yes"/>
      <point x="378" y="548" type="line"/>
      <point x="406" y="548" type="line"/>
      <point x="406" y="710" type="line"/>
      <point x="24" y="710" type="line"/>
      <point x="24" y="680" type="line"/>
      <point x="29" y="680" type="line" smooth="yes"/>
      <point x="57" y="680"/>
      <point x="82" y="673"/>
      <point x="82" y="644" type="curve" smooth="yes"/>
      <point x="82" y="66" type="line" smooth="yes"/>
      <point x="82" y="37"/>
      <point x="58" y="30"/>
      <point x="29" y="30" type="curve" smooth="yes"/>
      <point x="24" y="30" type="line"/>
      <point x="24" y="0" type="line"/>
      <point x="420" y="0" type="line"/>
    </contour>
    <contour>
      <point x="157" y="376" type="curve"/>
      <point x="157" y="348" type="line"/>
      <point x="231" y="346"/>
      <point x="291" y="342"/>
      <point x="348" y="327" type="curve"/>
      <point x="348" y="397" type="line"/>
      <point x="291" y="383"/>
      <point x="231" y="379"/>
    </contour>
  </outline>
</glyph>
<glyph name="H" format="2">
  <advance width="550"/>
  <unicode hex="0048"/>
  <outline>
    <contour>
      <point x="134" y="384" type="line"/>
      <point x="134" y="351" type="line"/>
      <point x="417" y="351" type="line"/>
      <point x="417" y="384" type="line"/>
    </contour>
    <contour>
      <point x="24" y="0" type="line"/>
      <point x="222" y="0" type="line"/>
      <point x="222" y="30" type="line"/>
      <point x="215" y="30" type="line" smooth="yes"/>
      <point x="193" y="30"/>
      <point x="165" y="33"/>
      <point x="165" y="40" type="curve" smooth="yes"/>
      <point x="165" y="671" type="line" smooth="yes"/>
      <point x="165" y="677"/>
      <point x="193" y="680"/>
      <point x="215" y="680" type="curve" smooth="yes"/>
      <point x="222" y="680" type="line"/>
      <point x="222" y="710" type="line"/>
      <point x="24" y="710" type="line"/>
      <point x="24" y="680" type="line"/>
      <point x="29" y="680" type="line" smooth="yes"/>
      <point x="57" y="680"/>
      <point x="82" y="673"/>
      <point x="82" y="645" type="curve" smooth="yes"/>
      <point x="82" y="65" type="line" smooth="yes"/>
      <point x="82" y="37"/>
      <point x="58" y="30"/>
      <point x="29" y="30" type="curve" smooth="yes"/>
      <point x="24" y="30" type="line"/>
    </contour>
    <contour>
      <point x="329" y="0" type="line"/>
      <point x="526" y="0" type="line"/>
      <point x="526" y="30" type="line"/>
      <point x="522" y="30" type="line" smooth="yes"/>
      <point x="493" y="30"/>
      <point x="469" y="37"/>
      <point x="469" y="65" type="curve" smooth="yes"/>
      <point x="469" y="645" type="line" smooth="yes"/>
      <point x="469" y="673"/>
      <point x="494" y="680"/>
      <point x="522" y="680" type="curve" smooth="yes"/>
      <point x="526" y="680" type="line"/>
      <point x="526" y="710" type="line"/>
      <point x="329" y="710" type="line"/>
      <point x="329" y="680" type="line"/>
      <point x="335" y="680" type="line" smooth="yes"/>
      <point x="358" y="680"/>
      <point x="386" y="677"/>
      <point x="386" y="671" type="curve" smooth="yes"/>
      <point x="386" y="40" type="line" smooth="yes"/>
      <point x="386" y="33"/>
      <point x="358" y="30"/>
      <point x="335" y="30" type="curve" smooth="yes"/>
      <point x="329" y="30" type="line"/>
    </contour>
  </outline>
</glyph>
<glyph name="L" format="2">
  <advance width="441"/>
  <unicode hex="004C"/>
  <outline>
    <contour>
      <point x="223" y="710" type="line"/>
      <point x="223" y="680" type="line"/>
      <point x="216" y="680" type="line" smooth="yes"/>
      <point x="193" y="680"/>
      <point x="165" y="677"/>
      <point x="165" y="669" type="curve" smooth="yes"/>
      <point x="165" y="33" type="line"/>
      <point x="290" y="33" type="line" smooth="yes"/>
      <point x="349" y="33"/>
      <point x="371" y="50"/>
      <point x="377" y="94" type="curve" smooth="yes"/>
      <point x="393" y="203" type="line"/>
      <point x="421" y="203" type="line"/>
      <point x="421" y="0" type="line"/>
      <point x="24" y="0" type="line"/>
      <point x="24" y="30" type="line"/>
      <point x="29" y="30" type="line" smooth="yes"/>
      <point x="58" y="30"/>
      <point x="82" y="37"/>
      <point x="82" y="65" type="curve" smooth="yes"/>
      <point x="82" y="645" type="line" smooth="yes"/>
      <point x="82" y="673"/>
      <point x="57" y="680"/>
      <point x="29" y="680" type="curve" smooth="yes"/>
      <point x="24" y="680" type="line"/>
      <point x="24" y="710" type="line"/>
    </contour>
  </outline>
</glyph>
<glyph name="O" format="2">
  <advance width="470"/>
  <unicode hex="004F"/>
  <outline>
    <contour>
      <point x="235" y="-10" type="curve" smooth="yes"/>
      <point x="364" y="-10"/>
      <point x="445" y="138"/>
      <point x="445" y="355" type="curve" smooth="yes"/>
      <point x="445" y="572"/>
      <point x="363" y="720"/>
      <point x="235" y="720" type="curve" smooth="yes"/>
      <point x="107.0" y="720.0"/>
      <point x="25" y="572"/>
      <point x="25" y="355" type="curve" smooth="yes"/>
      <point x="25" y="138"/>
      <point x="106.0" y="-10"/>
    </contour>
    <contour>
      <point x="235" y="25" type="curve" smooth="yes"/>
      <point x="141" y="25"/>
      <point x="113" y="152"/>
      <point x="113" y="355" type="curve" smooth="yes"/>
      <point x="113" y="558"/>
      <point x="141" y="685"/>
      <point x="235" y="685" type="curve" smooth="yes"/>
      <point x="329" y="685"/>
      <point x="357" y="558"/>
      <point x="357" y="355" type="curve" smooth="yes"/>
      <point x="357" y="152"/>
      <point x="329" y="25"/>
    </contour>
  </outline>
</glyph>
<glyph name="Q" format="2">
  <advance width="470"/>
  <unicode hex="0051"/>
  <outline>
    <contour>
      <point x="225" y="-3" type="curve"/>
      <point x="225" y="-102"/>
      <point x="277" y="-154"/>
      <point x="367" y="-154" type="curve" smooth="yes"/>
      <point x="407" y="-154"/>
      <point x="429" y="-144"/>
      <point x="445" y="-135" type="curve"/>
      <point x="445" y="-54" type="line"/>
      <point x="436" y="-61"/>
      <point x="404" y="-82"/>
      <point x="355" y="-82" type="curve" smooth="yes"/>
      <point x="300" y="-82"/>
      <point x="253" y="-56"/>
      <point x="253" y="10" type="curve"/>
      <point x="246" y="9"/>
      <point x="232" y="4"/>
    </contour>
    <contour>
      <point x="235" y="-10" type="curve" smooth="yes"/>
      <point x="364" y="-10"/>
      <point x="445" y="138"/>
      <point x="445" y="355" type="curve" smooth="yes"/>
      <point x="445" y="572"/>
      <point x="363" y="720"/>
      <point x="235" y="720" type="curve" smooth="yes"/>
      <point x="107.0" y="720.0"/>
      <point x="25" y="572"/>
      <point x="25" y="355" type="curve" smooth="yes"/>
      <point x="25" y="138"/>
      <point x="106.0" y="-10"/>
    </contour>
    <contour>
      <point x="235" y="25" type="curve" smooth="yes"/>
      <point x="141" y="25"/>
      <point x="113" y="152"/>
      <point x="113" y="355" type="curve" smooth="yes"/>
      <point x="113" y="558"/>
      <point x="141" y="685"/>
      <point x="235" y="685" type="curve" smooth="yes"/>
      <point x="329" y="685"/>
      <point x="357" y="558"/>
      <point x="357" y="355" type="curve" smooth="yes"/>
      <point x="357" y="152"/>
      <point x="329" y="25"/>
    </contour>
  </outline>
</glyph>
<glyph name="R" format="2">
  <advance width="496"/>
  <unicode hex="0052"/>
  <guideline x="434" y="60" angle="109.85118002349523" identifier="H7ltJ1hVUo"/>
  <outline>
    <contour>
      <point x="240" y="349" type="line"/>
      <point x="323" y="365" type="line"/>
      <point x="434" y="60" type="line" smooth="yes"/>
      <point x="444" y="32"/>
      <point x="458" y="30"/>
      <point x="483" y="30" type="curve" smooth="yes"/>
      <point x="486" y="30" type="line"/>
      <point x="486" y="0" type="line"/>
      <point x="366" y="0" type="line"/>
    </contour>
    <contour>
      <point x="165" y="40" type="line" smooth="yes"/>
      <point x="165" y="33"/>
      <point x="193" y="30"/>
      <point x="218" y="30" type="curve" smooth="yes"/>
      <point x="225" y="30" type="line"/>
      <point x="225" y="0" type="line"/>
      <point x="24" y="0" type="line"/>
      <point x="24" y="30" type="line"/>
      <point x="29" y="30" type="line" smooth="yes"/>
      <point x="58" y="30"/>
      <point x="82" y="37"/>
      <point x="82" y="65" type="curve" smooth="yes"/>
      <point x="82" y="645" type="line" smooth="yes"/>
      <point x="82" y="673"/>
      <point x="57" y="680"/>
      <point x="29" y="680" type="curve" smooth="yes"/>
      <point x="24" y="680" type="line"/>
      <point x="24" y="710" type="line"/>
      <point x="242" y="710" type="line" smooth="yes"/>
      <point x="369" y="710"/>
      <point x="437" y="628"/>
      <point x="437" y="527" type="curve" smooth="yes"/>
      <point x="437" y="439"/>
      <point x="382" y="375"/>
      <point x="307" y="350" type="curve"/>
      <point x="286" y="345"/>
      <point x="261" y="340"/>
      <point x="235" y="340" type="curve" smooth="yes"/>
      <point x="151" y="340" type="line"/>
      <point x="151" y="371" type="line"/>
      <point x="232" y="371" type="line" smooth="yes"/>
      <point x="321" y="371"/>
      <point x="351" y="444"/>
      <point x="351" y="527" type="curve" smooth="yes"/>
      <point x="351" y="618"/>
      <point x="317" y="677"/>
      <point x="235" y="677" type="curve" smooth="yes"/>
      <point x="165" y="677" type="line"/>
    </contour>
  </outline>
</glyph>
<glyph name="W" format="2">
  <advance width="678"/>
  <unicode hex="0057"/>
  <guideline x="128.8825" y="669.4" angle="279.6486481219317" identifier="eSQLEFzyzK"/>
  <guideline x="395.575" y="710.0" angle="280.92747681280304" identifier="FsW06efOuL"/>
  <guideline x="346" y="710.0" angle="78.14929452379562" identifier="Etr8fKghKy"/>
  <guideline x="607.9875" y="655.0" angle="79.97067574301754" identifier="ErinuEDg5R"/>
  <guideline x="230" y="123" angle="0" identifier="ssuoWlBwF2"/>
  <outline>
    <contour>
      <point x="10" y="710" type="line"/>
      <point x="10" y="679" type="line"/>
      <point x="14" y="679" type="line" smooth="yes"/>
      <point x="34" y="679"/>
      <point x="50" y="675"/>
      <point x="54" y="647" type="curve" smooth="yes"/>
      <point x="154" y="0" type="line"/>
      <point x="218" y="0" type="line"/>
      <point x="347" y="611" type="line"/>
      <point x="333" y="611" type="line"/>
      <point x="452" y="0" type="line"/>
      <point x="516" y="0" type="line"/>
      <point x="613" y="608" type="line" smooth="yes"/>
      <point x="621" y="658"/>
      <point x="640" y="679"/>
      <point x="663" y="679" type="curve" smooth="yes"/>
      <point x="668" y="679" type="line"/>
      <point x="668" y="710" type="line"/>
      <point x="520" y="713" type="line"/>
      <point x="520" y="682" type="line"/>
      <point x="541" y="682" type="line" smooth="yes"/>
      <point x="578" y="682"/>
      <point x="590" y="670"/>
      <point x="588" y="658" type="curve" smooth="yes"/>
      <point x="493" y="59" type="line"/>
      <point x="518" y="56" type="line"/>
      <point x="393" y="710" type="line"/>
      <point x="335" y="711" type="line"/>
      <point x="196" y="52" type="line"/>
      <point x="226" y="51" type="line"/>
      <point x="131" y="669" type="line"/>
      <point x="131" y="676"/>
      <point x="159" y="679"/>
      <point x="185" y="679" type="curve" smooth="yes"/>
      <point x="199" y="679" type="line"/>
      <point x="199" y="710" type="line"/>
    </contour>
  </outline>
</glyph>
<glyph name="Y" format="2">
  <advance width="438"/>
  <unicode hex="0059"/>
  <guideline x="132" y="666" angle="292.29507605935066" identifier="m9R9oiGSpO"/>
  <guideline x="359" y="654" angle="249.17679562131372" identifier="ToalnRrsxd"/>
  <outline>
    <contour>
      <point x="182" y="328" type="line"/>
      <point x="182" y="65" type="line" smooth="yes"/>
      <point x="182" y="36"/>
      <point x="157" y="30"/>
      <point x="130" y="30" type="curve" smooth="yes"/>
      <point x="119" y="30" type="line"/>
      <point x="119" y="0" type="line"/>
      <point x="328" y="0" type="line"/>
      <point x="328" y="30" type="line"/>
      <point x="317" y="30" type="line" smooth="yes"/>
      <point x="290" y="30"/>
      <point x="265" y="36"/>
      <point x="265" y="65" type="curve" smooth="yes"/>
      <point x="265" y="328" type="line"/>
      <point x="258" y="293" type="line"/>
      <point x="373" y="615" type="line" smooth="yes"/>
      <point x="389" y="661"/>
      <point x="403" y="680"/>
      <point x="423" y="680" type="curve" smooth="yes"/>
      <point x="428" y="680" type="line"/>
      <point x="428" y="710" type="line"/>
      <point x="292" y="710" type="line"/>
      <point x="292" y="680" type="line"/>
      <point x="310" y="680" type="line" smooth="yes"/>
      <point x="342" y="680"/>
      <point x="357" y="667"/>
      <point x="353" y="655" type="curve" smooth="yes"/>
      <point x="239" y="330" type="line"/>
      <point x="257" y="331" type="line"/>
      <point x="130" y="667" type="line" smooth="yes"/>
      <point x="127" y="675"/>
      <point x="155" y="680"/>
      <point x="177" y="680" type="curve" smooth="yes"/>
      <point x="188" y="680" type="line"/>
      <point x="188" y="710" type="line"/>
      <point x="10" y="710" type="line"/>
      <point x="10" y="680" type="line"/>
      <point x="14" y="680" type="line" smooth="yes"/>
      <point x="30" y="680"/>
      <point x="41" y="677"/>
      <point x="51" y="651" type="curve" smooth="yes"/>
      <point x="190" y="291" type="line"/>
    </contour>
  </outline>
</glyph>
<glyph name="Z" format="2">
  <advance width="414"/>
  <unicode hex="005A"/>
  <guideline x="380" y="675" angle="246.70746495118846" identifier="MjbIls60yZ"/>
  <outline>
    <contour>
      <point x="68" y="33" type="line"/>
      <point x="90" y="2" type="line"/>
      <point x="380" y="675" type="line"/>
      <point x="380" y="710" type="line"/>
      <point x="43" y="710" type="line"/>
      <point x="43" y="527" type="line"/>
      <point x="71" y="527" type="line"/>
      <point x="87" y="616" type="line" smooth="yes"/>
      <point x="95" y="660"/>
      <point x="114" y="677"/>
      <point x="174" y="677" type="curve" smooth="yes"/>
      <point x="330" y="677" type="line"/>
      <point x="310" y="697" type="line"/>
      <point x="25" y="35" type="line"/>
      <point x="25" y="0" type="line"/>
      <point x="384" y="0" type="line"/>
      <point x="384" y="213" type="line"/>
      <point x="356" y="213" type="line"/>
      <point x="340" y="94" type="line" smooth="yes"/>
      <point x="334" y="50"/>
      <point x="313" y="33"/>
      <point x="253" y="33" type="curve" smooth="yes"/>
    </contour>
  </outline>
</glyph>
<glyph name="c" format="2">
  <advance width="356"/>
  <unicode hex="0063"/>
  <outline>
    <contour>
      <point x="199" y="20" type="curve" smooth="yes"/>
      <point x="125" y="20"/>
      <point x="105" y="110"/>
      <point x="105" y="259" type="curve" smooth="yes"/>
      <point x="105" y="408"/>
      <point x="120" y="498"/>
      <point x="200" y="498" type="curve" smooth="yes"/>
      <point x="235" y="498"/>
      <point x="262" y="481"/>
      <point x="275" y="459" type="curve"/>
      <point x="281" y="482"/>
      <point x="258" y="493"/>
      <point x="244" y="492" type="curve"/>
      <point x="244" y="380" type="line"/>
      <point x="314" y="380" type="line"/>
      <point x="314" y="478" type="line"/>
      <point x="292" y="502"/>
      <point x="257" y="528"/>
      <point x="201" y="528" type="curve" smooth="yes"/>
      <point x="86" y="528"/>
      <point x="25" y="418"/>
      <point x="25" y="259" type="curve" smooth="yes"/>
      <point x="25" y="100"/>
      <point x="84" y="-10"/>
      <point x="192" y="-10" type="curve" smooth="yes"/>
      <point x="262" y="-10"/>
      <point x="302" y="36"/>
      <point x="326" y="117" type="curve"/>
      <point x="299" y="129" type="line"/>
      <point x="281" y="65"/>
      <point x="251" y="20"/>
    </contour>
  </outline>
</glyph>
<glyph name="i" format="2">
  <advance width="221"/>
  <unicode hex="0069"/>
  <outline>
    <contour>
      <point x="110" y="642" type="curve" smooth="yes"/>
      <point x="139" y="642"/>
      <point x="160" y="661"/>
      <point x="160" y="692" type="curve" smooth="yes"/>
      <point x="160" y="722"/>
      <point x="139" y="740"/>
      <point x="110" y="740" type="curve" smooth="yes"/>
      <point x="82" y="740"/>
      <point x="60" y="722"/>
      <point x="60" y="692" type="curve" smooth="yes"/>
      <point x="60" y="661"/>
      <point x="82" y="642"/>
    </contour>
    <contour>
      <point x="151" y="518" type="line"/>
      <point x="21" y="518" type="line"/>
      <point x="21" y="488" type="line"/>
      <point x="29" y="486" type="line" smooth="yes"/>
      <point x="58" y="478"/>
      <point x="72" y="470"/>
      <point x="72" y="442" type="curve" smooth="yes"/>
      <point x="72" y="66" type="line" smooth="yes"/>
      <point x="72" y="37"/>
      <point x="51" y="30"/>
      <point x="23" y="30" type="curve" smooth="yes"/>
      <point x="21" y="30" type="line"/>
      <point x="21" y="0" type="line"/>
      <point x="201" y="0" type="line"/>
      <point x="201" y="30" type="line"/>
      <point x="200" y="30" type="line" smooth="yes"/>
      <point x="172" y="30"/>
      <point x="151" y="37"/>
      <point x="151" y="66" type="curve" smooth="yes"/>
    </contour>
  </outline>
</glyph>
<glyph name="j" format="2">
  <advance width="207"/>
  <unicode hex="006A"/>
  <outline>
    <contour>
      <point x="70" y="-101" type="line" smooth="yes"/>
      <point x="70" y="-193"/>
      <point x="38" y="-204"/>
      <point x="14" y="-204" type="curve" smooth="yes"/>
      <point x="-2" y="-204"/>
      <point x="-16" y="-199"/>
      <point x="-20" y="-197" type="curve"/>
      <point x="-20" y="-234" type="line"/>
      <point x="-10" y="-237"/>
      <point x="2" y="-239"/>
      <point x="20" y="-239" type="curve" smooth="yes"/>
      <point x="70" y="-239"/>
      <point x="149" y="-225"/>
      <point x="149" y="-95" type="curve" smooth="yes"/>
      <point x="149" y="518" type="line"/>
      <point x="15" y="518" type="line"/>
      <point x="15" y="488" type="line"/>
      <point x="23" y="486" type="line" smooth="yes"/>
      <point x="54" y="477"/>
      <point x="70" y="470"/>
      <point x="70" y="442" type="curve" smooth="yes"/>
    </contour>
    <contour>
      <point x="108" y="642" type="curve" smooth="yes"/>
      <point x="137" y="642"/>
      <point x="158" y="661"/>
      <point x="158" y="692" type="curve" smooth="yes"/>
      <point x="158" y="722"/>
      <point x="137" y="740"/>
      <point x="108" y="740" type="curve" smooth="yes"/>
      <point x="80" y="740"/>
      <point x="58" y="722"/>
      <point x="58" y="692" type="curve" smooth="yes"/>
      <point x="58" y="661"/>
      <point x="80" y="642"/>
    </contour>
  </outline>
</glyph>
<glyph name="s" format="2">
  <advance width="344"/>
  <unicode hex="0073"/>
  <guideline x="151" y="234" angle="330.36161631184865" identifier="lilYyjbGov"/>
  <outline>
    <contour>
      <point x="252" y="108" type="curve" smooth="yes"/>
      <point x="252" y="65"/>
      <point x="233" y="20"/>
      <point x="167" y="20" type="curve" smooth="yes"/>
      <point x="134" y="20"/>
      <point x="99" y="31"/>
      <point x="80" y="60" type="curve"/>
      <point x="72" y="43"/>
      <point x="82" y="39"/>
      <point x="100" y="25" type="curve"/>
      <point x="100" y="132" type="line"/>
      <point x="30" y="132" type="line"/>
      <point x="30" y="42" type="line"/>
      <point x="56" y="16"/>
      <point x="107" y="-10"/>
      <point x="168" y="-10" type="curve" smooth="yes"/>
      <point x="259" y="-10"/>
      <point x="319" y="49"/>
      <point x="319" y="142" type="curve" smooth="yes"/>
      <point x="319" y="237"/>
      <point x="257" y="275"/>
      <point x="199" y="308" type="curve" smooth="yes"/>
      <point x="148" y="338"/>
      <point x="101" y="364"/>
      <point x="101" y="422" type="curve" smooth="yes"/>
      <point x="101" y="460"/>
      <point x="121" y="498"/>
      <point x="183" y="498" type="curve" smooth="yes"/>
      <point x="216" y="498"/>
      <point x="242" y="487"/>
      <point x="257" y="462" type="curve"/>
      <point x="262" y="466"/>
      <point x="248" y="503"/>
      <point x="230" y="501" type="curve"/>
      <point x="230" y="406" type="line"/>
      <point x="295" y="406" type="line"/>
      <point x="295" y="493" type="line"/>
      <point x="279" y="511"/>
      <point x="239" y="528"/>
      <point x="187" y="528" type="curve" smooth="yes"/>
      <point x="96" y="528"/>
      <point x="38" y="476"/>
      <point x="38" y="390" type="curve" smooth="yes"/>
      <point x="38" y="305"/>
      <point x="94" y="266"/>
      <point x="151" y="234" type="curve" smooth="yes"/>
      <point x="209" y="201"/>
      <point x="252" y="173"/>
    </contour>
  </outline>
</glyph>
<glyph name="v" format="2">
  <advance width="384"/>
  <unicode hex="0076"/>
  <guideline x="122" y="476" angle="284.6259887698636" identifier="vQi1sDdRpa"/>
  <guideline x="315" y="469" angle="255.37401123013632" identifier="UfbNg1tifS"/>
  <outline>
    <contour>
      <point x="306" y="469" type="curve"/>
      <point x="204" y="76" type="line"/>
      <point x="222" y="75" type="line"/>
      <point x="118" y="476" type="line"/>
      <point x="118" y="483"/>
      <point x="148" y="488"/>
      <point x="169" y="488" type="curve" smooth="yes"/>
      <point x="171" y="488" type="line"/>
      <point x="171" y="518" type="line"/>
      <point x="5" y="518" type="line"/>
      <point x="5" y="488" type="line"/>
      <point x="11" y="488" type="line" smooth="yes"/>
      <point x="29" y="488"/>
      <point x="39" y="483"/>
      <point x="46" y="456" type="curve" smooth="yes"/>
      <point x="165" y="0" type="line"/>
      <point x="219" y="0" type="line"/>
      <point x="338" y="456" type="line" smooth="yes"/>
      <point x="345" y="483"/>
      <point x="355" y="488"/>
      <point x="373" y="488" type="curve" smooth="yes"/>
      <point x="379" y="488" type="line"/>
      <point x="379" y="518" type="line"/>
      <point x="257" y="518" type="line"/>
      <point x="257" y="488" type="line"/>
      <point x="259" y="488" type="line" smooth="yes"/>
      <point x="282" y="488"/>
      <point x="306" y="482"/>
    </contour>
  </outline>
</glyph>
<glyph name="y" format="2">
  <advance width="384"/>
  <unicode hex="0079"/>
  <guideline x="125.8625" y="477.9" angle="286.6333076822987" identifier="UZ8c0d67Qv"/>
  <guideline x="298" y="469" angle="255.38781311303978" identifier="yKsX3Tuu86"/>
  <outline>
    <contour>
      <point x="176" y="-41" type="line"/>
      <point x="202" y="16" type="line"/>
      <point x="221" y="80" type="line"/>
      <point x="118" y="476" type="line"/>
      <point x="118" y="483"/>
      <point x="148" y="488"/>
      <point x="169" y="488" type="curve" smooth="yes"/>
      <point x="171" y="488" type="line"/>
      <point x="171" y="518" type="line"/>
      <point x="5" y="518" type="line"/>
      <point x="5" y="488" type="line"/>
      <point x="11" y="488" type="line"/>
      <point x="29" y="488"/>
      <point x="39" y="483"/>
      <point x="46" y="456" type="curve" smooth="yes"/>
    </contour>
    <contour>
      <point x="77" y="-232" type="curve" smooth="yes"/>
      <point x="127" y="-232"/>
      <point x="165" y="-207"/>
      <point x="198" y="-81" type="curve" smooth="yes"/>
      <point x="338" y="456" type="line" smooth="yes"/>
      <point x="345" y="483"/>
      <point x="355" y="488"/>
      <point x="373" y="488" type="curve" smooth="yes"/>
      <point x="379" y="488" type="line"/>
      <point x="379" y="518" type="line"/>
      <point x="257" y="518" type="line"/>
      <point x="257" y="488" type="line"/>
      <point x="259" y="488" type="line" smooth="yes"/>
      <point x="282" y="488"/>
      <point x="306" y="482"/>
      <point x="306" y="469" type="curve"/>
      <point x="197" y="48" type="line"/>
      <point x="166" y="-54" type="line" smooth="yes"/>
      <point x="139" y="-144"/>
      <point x="117" y="-160"/>
      <point x="78" y="-160" type="curve" smooth="yes"/>
      <point x="46" y="-160"/>
      <point x="27" y="-149"/>
      <point x="17" y="-142" type="curve"/>
      <point x="17" y="-216" type="line"/>
      <point x="24" y="-221"/>
      <point x="44" y="-232"/>
    </contour>
  </outline>
</glyph>
<glyph name="brokenbar" format="2">
  <advance width="164"/>
  <unicode hex="00A6"/>
  <outline>
    <contour>
      <point x="61.315" y="751.0" type="line"/>
      <point x="61.315" y="379.0" type="line"/>
      <point x="100.9425" y="379.0" type="line"/>
      <point x="100.9425" y="751.0" type="line"/>
    </contour>
    <contour>
      <point x="61.315" y="241.9" type="line"/>
      <point x="61.315" y="-130.1" type="line"/>
      <point x="100.9425" y="-130.1" type="line"/>
      <point x="100.9425" y="241.9" type="line"/>
    </contour>
  </outline>
</glyph>
<glyph name="AE" format="2">
  <advance width="702"/>
  <unicode hex="00C6"/>
  <guideline x="223" y="53" angle="68.02240478510771" identifier="ZCHdF6aPNL"/>
  <outline>
    <contour>
      <point x="424" y="376" type="curve"/>
      <point x="424" y="348" type="line"/>
      <point x="498" y="346"/>
      <point x="548" y="342"/>
      <point x="605" y="327" type="curve"/>
      <point x="605" y="397" type="line"/>
      <point x="548" y="383"/>
      <point x="498" y="379"/>
    </contour>
    <contour>
      <point x="174" y="290" type="line"/>
      <point x="162" y="256" type="line"/>
      <point x="374" y="256" type="line"/>
      <point x="374" y="290" type="line"/>
    </contour>
    <contour>
      <point x="225" y="710" type="line"/>
      <point x="225" y="680" type="line"/>
      <point x="244" y="680" type="line" smooth="yes"/>
      <point x="282" y="680"/>
      <point x="306" y="673"/>
      <point x="306" y="650" type="curve"/>
      <point x="80" y="90" type="line" smooth="yes"/>
      <point x="60" y="40"/>
      <point x="46" y="30"/>
      <point x="11" y="30" type="curve" smooth="yes"/>
      <point x="5" y="30" type="line"/>
      <point x="5" y="0" type="line"/>
      <point x="178" y="0" type="line"/>
      <point x="178" y="30" type="line"/>
      <point x="156" y="30" type="line" smooth="yes"/>
      <point x="116" y="30"/>
      <point x="105" y="41"/>
      <point x="105" y="53" type="curve"/>
      <point x="359" y="684" type="line"/>
      <point x="349" y="695" type="line"/>
      <point x="349" y="66" type="line" smooth="yes"/>
      <point x="349" y="37"/>
      <point x="325" y="30"/>
      <point x="296" y="30" type="curve" smooth="yes"/>
      <point x="291" y="30" type="line"/>
      <point x="291" y="0" type="line"/>
      <point x="677" y="0" type="line"/>
      <point x="677" y="187" type="line"/>
      <point x="649" y="187" type="line"/>
      <point x="633" y="94" type="line" smooth="yes"/>
      <point x="625" y="50"/>
      <point x="605" y="33"/>
      <point x="545" y="33" type="curve" smooth="yes"/>
      <point x="432" y="33" type="line"/>
      <point x="432" y="677" type="line"/>
      <point x="534" y="677" type="line" smooth="yes"/>
      <point x="591" y="677"/>
      <point x="610" y="660"/>
      <point x="619" y="619" type="curve" smooth="yes"/>
      <point x="635" y="548" type="line"/>
      <point x="663" y="548" type="line"/>
      <point x="663" y="710" type="line"/>
    </contour>
  </outline>
</glyph>
<glyph name="ae" format="2">
  <advance width="584"/>
  <unicode hex="00E6"/>
  <anchor x="307.1875" y="555.0" name="top"/>
  <outline>
    <contour>
      <point x="249" y="302" type="line"/>
      <point x="94" y="274"/>
      <point x="20" y="219"/>
      <point x="20" y="116" type="curve" smooth="yes"/>
      <point x="20" y="38"/>
      <point x="67" y="-10"/>
      <point x="140" y="-10.0" type="curve" smooth="yes"/>
      <point x="208" y="-10"/>
      <point x="264" y="32"/>
      <point x="281" y="130" type="curve"/>
      <point x="264" y="174" type="line"/>
      <point x="254" y="78"/>
      <point x="214" y="28"/>
      <point x="164" y="28" type="curve" smooth="yes"/>
      <point x="126" y="28"/>
      <point x="95" y="57"/>
      <point x="95" y="122" type="curve" smooth="yes"/>
      <point x="95" y="201"/>
      <point x="138" y="259"/>
      <point x="249" y="274" type="curve"/>
    </contour>
    <contour>
      <point x="308" y="386" type="line"/>
      <point x="308" y="490"/>
      <point x="253" y="528"/>
      <point x="177" y="528.0" type="curve" smooth="yes"/>
      <point x="112" y="528"/>
      <point x="64" y="500"/>
      <point x="43" y="481" type="curve"/>
      <point x="43" y="390" type="line"/>
      <point x="113" y="390" type="line"/>
      <point x="113" y="499" type="line"/>
      <point x="96" y="501"/>
      <point x="77" y="498"/>
      <point x="75" y="451" type="curve"/>
      <point x="95" y="484"/>
      <point x="125" y="498"/>
      <point x="163" y="498" type="curve" smooth="yes"/>
      <point x="216" y="498"/>
      <point x="239" y="470"/>
      <point x="239" y="388" type="curve" smooth="yes"/>
      <point x="239" y="268" type="line"/>
    </contour>
    <contour>
      <point x="410" y="-10" type="curve" smooth="yes"/>
      <point x="481" y="-10"/>
      <point x="528" y="36"/>
      <point x="556" y="117" type="curve"/>
      <point x="529" y="129" type="line"/>
      <point x="507" y="65"/>
      <point x="473" y="20"/>
      <point x="415" y="20" type="curve" smooth="yes"/>
      <point x="333" y="20"/>
      <point x="317" y="110"/>
      <point x="317" y="259" type="curve" smooth="yes"/>
      <point x="317" y="408"/>
      <point x="337" y="498"/>
      <point x="404" y="498" type="curve" smooth="yes"/>
      <point x="464" y="498"/>
      <point x="483" y="426"/>
      <point x="484" y="293" type="curve"/>
      <point x="501" y="302" type="line"/>
      <point x="296" y="302" type="line"/>
      <point x="296" y="272" type="line"/>
      <point x="559" y="272" type="line"/>
      <point x="558" y="437"/>
      <point x="500" y="528"/>
      <point x="404" y="528" type="curve" smooth="yes"/>
      <point x="298" y="528"/>
      <point x="239" y="418"/>
      <point x="239" y="259" type="curve" smooth="yes"/>
      <point x="239" y="100"/>
      <point x="300" y="-10"/>
    </contour>
  </outline>
</glyph>
<glyph name="oslash" format="2">
  <advance width="384"/>
  <unicode hex="00F8"/>
  <anchor x="192" y="551.0" name="top"/>
  <outline>
    <contour>
      <point x="350" y="523" type="line"/>
      <point x="-3" y="-15" type="line"/>
      <point x="34" y="-15" type="line"/>
      <point x="387" y="523" type="line"/>
    </contour>
    <component base="o"/>
  </outline>
</glyph>
<glyph name="thorn" format="2">
  <advance width="422"/>
  <unicode hex="00FE"/>
  <outline>
    <contour>
      <point x="242" y="-10" type="curve" smooth="yes"/>
      <point x="339" y="-10"/>
      <point x="397" y="100"/>
      <point x="397" y="259" type="curve" smooth="yes"/>
      <point x="397" y="418"/>
      <point x="339" y="528"/>
      <point x="243" y="528" type="curve" smooth="yes"/>
      <point x="203" y="528"/>
      <point x="152" y="508"/>
      <point x="133" y="447" type="curve"/>
      <point x="138" y="399" type="line"/>
      <point x="154" y="466"/>
      <point x="188" y="491"/>
      <point x="227" y="491" type="curve" smooth="yes"/>
      <point x="297" y="491"/>
      <point x="315" y="408"/>
      <point x="315" y="259" type="curve" smooth="yes"/>
      <point x="315" y="110"/>
      <point x="297" y="27"/>
      <point x="227" y="27" type="curve" smooth="yes"/>
      <point x="188" y="27"/>
      <point x="154" y="52"/>
      <point x="138" y="119" type="curve"/>
      <point x="133" y="71" type="line"/>
      <point x="152" y="7"/>
      <point x="204" y="-10"/>
    </contour>
    <contour>
      <point x="200" y="-223" type="line"/>
      <point x="200" y="-193" type="line"/>
      <point x="192" y="-193" type="line" smooth="yes"/>
      <point x="174" y="-193"/>
      <point x="145" y="-190"/>
      <point x="145" y="-183" type="curve" smooth="yes"/>
      <point x="145" y="750" type="line"/>
      <point x="15" y="750" type="line"/>
      <point x="15" y="720" type="line"/>
      <point x="23" y="718" type="line" smooth="yes"/>
      <point x="52" y="710"/>
      <point x="66" y="702"/>
      <point x="66" y="674" type="curve" smooth="yes"/>
      <point x="66" y="-157" type="line" smooth="yes"/>
      <point x="66" y="-186"/>
      <point x="45" y="-193"/>
      <point x="16" y="-193" type="curve"/>
      <point x="15" y="-193" type="line"/>
      <point x="15" y="-223" type="line"/>
    </contour>
  </outline>
</glyph>
<glyph name="dcroat" format="2">
  <advance width="428"/>
  <unicode hex="0111"/>
  <outline>
    <contour>
      <point x="421" y="634" type="line"/>
      <point x="147" y="634" type="line"/>
      <point x="147" y="599" type="line"/>
      <point x="421" y="599" type="line"/>
    </contour>
    <component base="d"/>
  </outline>
</glyph>
<glyph name="Eng" format="2">
  <advance width="524"/>
  <unicode hex="014A"/>
  <outline>
    <contour>
      <point x="327.0425" y="-212.0" type="curve" smooth="yes"/>
      <point x="293.7825" y="-212.0"/>
      <point x="264.005" y="-202.25"/>
      <point x="249.7925" y="-193.0" type="curve"/>
      <point x="249.7925" y="-147.65" type="line"/>
      <point x="256.105" y="-150.85"/>
      <point x="290.215" y="-174.45"/>
      <point x="326.225" y="-174.45" type="curve" smooth="yes"/>
      <point x="374.3725" y="-174.45"/>
      <point x="412.9425" y="-129.5"/>
      <point x="412.9425" y="-25.9" type="curve" smooth="yes"/>
      <point x="412.9425" y="31.799999999999997" type="line"/>
      <point x="423.005" y="-49.75" type="line"/>
      <point x="103.0275" y="690.9" type="line"/>
      <point x="116.53999999999999" y="694.9" type="line"/>
      <point x="116.53999999999999" y="65.65" type="line" smooth="yes"/>
      <point x="116.53999999999999" y="38.7"/>
      <point x="137.545" y="32.6"/>
      <point x="166.01" y="32.6" type="curve" smooth="yes"/>
      <point x="182.8975" y="32.6" type="line"/>
      <point x="182.8975" y="0.0" type="line"/>
      <point x="23.4875" y="0.0" type="line"/>
      <point x="23.4875" y="32.6" type="line"/>
      <point x="31.7875" y="32.6" type="line" smooth="yes"/>
      <point x="56.575" y="32.6"/>
      <point x="80.5675" y="50.3"/>
      <point x="80.5675" y="95.45" type="curve" smooth="yes"/>
      <point x="80.5675" y="641.4" type="line" smooth="yes"/>
      <point x="80.5675" y="670.4"/>
      <point x="54.7475" y="677.4"/>
      <point x="31.7875" y="677.4" type="curve" smooth="yes"/>
      <point x="23.4875" y="677.4" type="line"/>
      <point x="23.4875" y="710.0" type="line"/>
      <point x="184.805" y="710.0" type="line"/>
      <point x="429.38" y="130.2" type="line"/>
      <point x="413.4375" y="118.2" type="line"/>
      <point x="413.4375" y="644.35" type="line" smooth="yes"/>
      <point x="413.4375" y="671.3"/>
      <point x="392.40999999999997" y="677.4"/>
      <point x="363.96750000000003" y="677.4" type="curve" smooth="yes"/>
      <point x="347.08" y="677.4" type="line"/>
      <point x="347.08" y="710.0" type="line"/>
      <point x="505.7675" y="710.0" type="line"/>
      <point x="505.7675" y="677.4" type="line"/>
      <point x="498.3175" y="677.4" type="line" smooth="yes"/>
      <point x="473.4025" y="677.4"/>
      <point x="448.815" y="659.95"/>
      <point x="448.815" y="614.8" type="curve" smooth="yes"/>
      <point x="448.815" y="-22.95" type="line" smooth="yes"/>
      <point x="448.815" y="-158.8"/>
      <point x="387.8125" y="-212.0"/>
    </contour>
  </outline>
</glyph>
<glyph name="OE" format="2">
  <advance width="690"/>
  <unicode hex="0152"/>
  <outline>
    <contour>
      <point x="412" y="376" type="line"/>
      <point x="486" y="379"/>
      <point x="536" y="383"/>
      <point x="593" y="397" type="curve"/>
      <point x="593" y="327" type="line"/>
      <point x="536" y="342"/>
      <point x="486" y="346"/>
      <point x="412" y="348" type="curve"/>
    </contour>
    <contour>
      <point x="394" y="0" type="line"/>
      <point x="274" y="0" type="line" smooth="yes"/>
      <point x="106" y="0"/>
      <point x="25" y="138"/>
      <point x="25" y="355" type="curve" smooth="yes"/>
      <point x="25" y="572"/>
      <point x="106" y="710"/>
      <point x="274" y="710" type="curve" smooth="yes"/>
      <point x="393" y="710" type="line"/>
      <point x="393" y="677" type="line"/>
      <point x="275" y="677" type="line" smooth="yes"/>
      <point x="151" y="677"/>
      <point x="113" y="558"/>
      <point x="113" y="355" type="curve" smooth="yes"/>
      <point x="113" y="152"/>
      <point x="151" y="33"/>
      <point x="275" y="33" type="curve" smooth="yes"/>
      <point x="394" y="33" type="line"/>
    </contour>
    <contour>
      <point x="665" y="187" type="line"/>
      <point x="665" y="0" type="line"/>
      <point x="337" y="0" type="line"/>
      <point x="337" y="710" type="line"/>
      <point x="651" y="710" type="line"/>
      <point x="651" y="548" type="line"/>
      <point x="623" y="548" type="line"/>
      <point x="607" y="619" type="line" smooth="yes"/>
      <point x="598" y="660"/>
      <point x="579" y="677"/>
      <point x="522" y="677" type="curve" smooth="yes"/>
      <point x="420" y="677" type="line"/>
      <point x="420" y="33" type="line"/>
      <point x="533" y="33" type="line" smooth="yes"/>
      <point x="593" y="33"/>
      <point x="613" y="50"/>
      <point x="621" y="94" type="curve" smooth="yes"/>
      <point x="637" y="187" type="line"/>
    </contour>
  </outline>
</glyph>
<glyph name="dagger" format="2">
  <advance width="321"/>
  <unicode hex="2020"/>
  <outline>
    <contour>
      <point x="150" y="513" type="line"/>
      <point x="171" y="513" type="line"/>
      <point x="285" y="461" type="line"/>
      <point x="301" y="461" type="line"/>
      <point x="301" y="564" type="line"/>
      <point x="285" y="564" type="line"/>
      <point x="171" y="528" type="line"/>
      <point x="150" y="528" type="line"/>
      <point x="36" y="564" type="line"/>
      <point x="20" y="564" type="line"/>
      <point x="20" y="461" type="line"/>
      <point x="36" y="461" type="line"/>
    </contour>
    <contour>
      <point x="206" y="710" type="line"/>
      <point x="115" y="710" type="line"/>
      <point x="115" y="684" type="line" smooth="yes"/>
      <point x="115" y="649"/>
      <point x="147" y="591"/>
      <point x="147" y="519" type="curve" smooth="yes"/>
      <point x="147" y="449"/>
      <point x="133" y="411"/>
      <point x="113" y="375" type="curve"/>
      <point x="113" y="364" type="line" smooth="yes"/>
      <point x="113" y="324"/>
      <point x="141" y="218"/>
      <point x="149" y="0" type="curve"/>
      <point x="172" y="0" type="line"/>
      <point x="180" y="218"/>
      <point x="208" y="324"/>
      <point x="208" y="364" type="curve" smooth="yes"/>
      <point x="208" y="375" type="line"/>
      <point x="188" y="411"/>
      <point x="174" y="449"/>
      <point x="174" y="519" type="curve" smooth="yes"/>
      <point x="174" y="591"/>
      <point x="206" y="649"/>
      <point x="206" y="684" type="curve" smooth="yes"/>
    </contour>
  </outline>
</glyph>
<glyph name="guilsinglleft" format="2">
  <advance width="202"/>
  <unicode hex="2039"/>
  <outline>
    <contour>
      <point x="79" y="213" type="line"/>
      <point x="177" y="456" type="line"/>
      <point x="150" y="456" type="line"/>
      <point x="25" y="285" type="line"/>
      <point x="25" y="245" type="line"/>
      <point x="150" y="75" type="line"/>
      <point x="177" y="75" type="line"/>
      <point x="79" y="313" type="line"/>
    </contour>
  </outline>
</glyph>
<glyph name="manat" format="2">
  <advance width="393.4"/>
  <unicode hex="20BC"/>
  <outline>
    <contour>
      <point x="181.3375" y="720.0" type="line"/>
      <point x="181.3375" y="135.5" type="line"/>
      <point x="212.0625" y="135.5" type="line"/>
      <point x="212.0625" y="720.0" type="line"/>
    </contour>
    <contour>
      <point x="196.7" y="550.35" type="curve" smooth="yes"/>
      <point x="281.4175" y="550.35"/>
      <point x="304.9375" y="385.7"/>
      <point x="302.98" y="0.0" type="curve"/>
      <point x="378.64" y="0.0" type="line"/>
      <point x="378.64" y="358.1562838983051"/>
      <point x="322.655" y="583.35"/>
      <point x="196.7" y="583.35" type="curve" smooth="yes"/>
      <point x="70.745" y="583.35"/>
      <point x="14.76" y="358.17813362068966"/>
      <point x="14.76" y="0.0" type="curve"/>
      <point x="90.41999999999999" y="0.0" type="line"/>
      <point x="88.3125" y="385.7"/>
      <point x="111.8325" y="550.35"/>
    </contour>
  </outline>
</glyph>
<glyph name="emptyset" format="2">
  <advance width="493"/>
  <unicode hex="2205"/>
  <outline>
    <contour>
      <point x="247.105" y="-10.0" type="curve" smooth="yes"/>
      <point x="357.905" y="-10.0"/>
      <point x="447.76" y="111.9"/>
      <point x="447.76" y="273.8" type="curve" smooth="yes"/>
      <point x="447.76" y="436.65"/>
      <point x="357.905" y="557.6"/>
      <point x="247.105" y="557.6" type="curve" smooth="yes"/>
      <point x="137.0275" y="557.6"/>
      <point x="47.3" y="436.65"/>
      <point x="47.3" y="273.8" type="curve" smooth="yes"/>
      <point x="47.3" y="111.9"/>
      <point x="137.0275" y="-10.0"/>
    </contour>
    <contour>
      <point x="247.105" y="26.95" type="curve" smooth="yes"/>
      <point x="341.875" y="26.95"/>
      <point x="417.145" y="131.86098214283"/>
      <point x="417.145" y="273.8" type="curve" smooth="yes"/>
      <point x="417.145" y="419.53223214283"/>
      <point x="343.7025" y="520.65"/>
      <point x="247.105" y="520.65" type="curve" smooth="yes"/>
      <point x="155.3575" y="520.65"/>
      <point x="77.91499999999999" y="417.585625"/>
      <point x="77.91499999999999" y="273.8" type="curve" smooth="yes"/>
      <point x="77.91499999999999" y="129.066071428585"/>
      <point x="152.68" y="26.95"/>
    </contour>
    <contour>
      <point x="50.9125" y="-39.65" type="line"/>
      <point x="30.11" y="-16.3" type="line"/>
      <point x="442.1925" y="586.3" type="line"/>
      <point x="462.995" y="562.95" type="line"/>
    </contour>
  </outline>
</glyph>
<glyph name="F.alt" format="2">
  <advance width="404"/>
  <outline>
    <contour>
      <point x="163.89499999999998" y="674.15" type="line"/>
      <point x="257.9875" y="674.15" type="line" smooth="yes"/>
      <point x="314.595" y="674.15"/>
      <point x="337.0725" y="660.4"/>
      <point x="342.5225" y="618.8" type="curve" smooth="yes"/>
      <point x="354.895" y="527.6" type="line"/>
      <point x="379.0075" y="527.6" type="line"/>
      <point x="379.0075" y="710.0" type="line"/>
      <point x="23.4875" y="710.0" type="line"/>
      <point x="23.4875" y="679.4" type="line"/>
      <point x="28.26" y="679.4" type="line" smooth="yes"/>
      <point x="56.4475" y="679.4"/>
      <point x="80.5675" y="672.4"/>
      <point x="80.5675" y="643.4" type="curve" smooth="yes"/>
      <point x="80.5675" y="66.6" type="line" smooth="yes"/>
      <point x="80.5675" y="37.6"/>
      <point x="56.575" y="30.599999999999998"/>
      <point x="28.26" y="30.599999999999998" type="curve" smooth="yes"/>
      <point x="23.4875" y="30.599999999999998" type="line"/>
      <point x="23.4875" y="0.0" type="line"/>
      <point x="233.07" y="0.0" type="line"/>
      <point x="233.07" y="30.599999999999998" type="line"/>
      <point x="220.32" y="30.599999999999998" type="line" smooth="yes"/>
      <point x="194.81" y="30.599999999999998"/>
      <point x="163.89499999999998" y="33.5"/>
      <point x="163.89499999999998" y="57.099999999999994" type="curve" smooth="yes"/>
    </contour>
    <contour>
      <point x="141.405" y="370.55" type="line"/>
      <point x="141.405" y="335.75" type="line"/>
      <point x="267.6725" y="335.75" type="line"/>
      <point x="288.1725" y="335.75"/>
      <point x="294.75" y="305.25"/>
      <point x="294.75" y="271.75" type="curve" smooth="yes"/>
      <point x="294.75" y="265.55" type="line"/>
      <point x="318.38" y="265.55" type="line"/>
      <point x="318.38" y="441.75" type="line"/>
      <point x="294.75" y="441.75" type="line"/>
      <point x="294.75" y="435.55" type="line" smooth="yes"/>
      <point x="294.75" y="401.1"/>
      <point x="288.1725" y="370.55"/>
      <point x="267.6725" y="370.55" type="curve"/>
    </contour>
  </outline>
</glyph>
<glyph name="at.uc" format="2">
  <advance width="639"/>
  <outline>
    <contour>
      <point x="277" y="124" type="curve" smooth="yes"/>
      <point x="340" y="124"/>
      <point x="379" y="183"/>
      <point x="413" y="301" type="curve"/>
      <point x="394" y="308" type="line"/>
      <point x="367" y="204"/>
      <point x="332" y="156"/>
      <point x="293" y="156" type="curve" smooth="yes"/>
      <point x="257" y="156"/>
      <point x="244" y="202"/>
      <point x="244" y="277" type="curve" smooth="yes"/>
      <point x="244" y="406"/>
      <point x="279" y="518"/>
      <point x="345" y="518" type="curve" smooth="yes"/>
      <point x="382" y="518"/>
      <point x="401" y="484"/>
      <point x="415" y="451" type="curve"/>
      <point x="437" y="454" type="line"/>
      <point x="412" y="519"/>
      <point x="387" y="549"/>
      <point x="337" y="549" type="curve" smooth="yes"/>
      <point x="231" y="549"/>
      <point x="171" y="421"/>
      <point x="171" y="288" type="curve" smooth="yes"/>
      <point x="171" y="174"/>
      <point x="217" y="124"/>
    </contour>
    <contour>
      <point x="332.0" y="-32.0" type="curve" smooth="yes"/>
      <point x="168" y="-32"/>
      <point x="75" y="92"/>
      <point x="75" y="300" type="curve" smooth="yes"/>
      <point x="75" y="535"/>
      <point x="192" y="703"/>
      <point x="367.0" y="703.0" type="curve" smooth="yes"/>
      <point x="495" y="703"/>
      <point x="567" y="615"/>
      <point x="567" y="426" type="curve" smooth="yes"/>
      <point x="567" y="270"/>
      <point x="516" y="161"/>
      <point x="466" y="161" type="curve" smooth="yes"/>
      <point x="440" y="161"/>
      <point x="426" y="183"/>
      <point x="434" y="252" type="curve" smooth="yes"/>
      <point x="469" y="543" type="line"/>
      <point x="423" y="543" type="line"/>
      <point x="396" y="506" type="line"/>
      <point x="395" y="501" type="line"/>
      <point x="361" y="214" type="line"/>
      <point x="364" y="215"/>
      <point x="369" y="217"/>
      <point x="368" y="218" type="curve"/>
      <point x="363" y="168"/>
      <point x="398" y="130"/>
      <point x="450" y="130.0" type="curve" smooth="yes"/>
      <point x="540" y="130"/>
      <point x="609" y="259"/>
      <point x="609" y="428" type="curve" smooth="yes"/>
      <point x="609" y="635"/>
      <point x="511" y="733"/>
      <point x="367.0" y="733.0" type="curve" smooth="yes"/>
      <point x="171" y="733"/>
      <point x="30" y="557"/>
      <point x="30" y="303" type="curve" smooth="yes"/>
      <point x="30" y="72"/>
      <point x="146" y="-63"/>
      <point x="324.0" y="-63.0" type="curve" smooth="yes"/>
      <point x="405" y="-63"/>
      <point x="474" y="-35"/>
      <point x="516" y="4" type="curve"/>
      <point x="500" y="27" type="line"/>
      <point x="457" y="-8"/>
      <point x="403" y="-32"/>
    </contour>
  </outline>
</glyph>
<glyph name="bar.uc" format="2">
  <advance width="164"/>
  <outline>
    <contour>
      <point x="61.315" y="749.5" type="line"/>
      <point x="61.315" y="-39.7" type="line"/>
      <point x="100.9425" y="-39.7" type="line"/>
      <point x="100.9425" y="749.5" type="line"/>
    </contour>
  </outline>
</glyph>
<glyph name="breve_tilde.uc" format="2">
  <advance width="351"/>
  <anchor x="197.85" y="694.0" name="_top"/>
  <outline>
    <contour>
      <point x="175.5" y="758.95" type="curve" smooth="yes"/>
      <point x="115.8825" y="758.95"/>
      <point x="74.925" y="802.25"/>
      <point x="70.775" y="884.4" type="curve"/>
      <point x="100.405" y="884.4" type="line"/>
      <point x="108.19041866389557" y="841.6383110372417"/>
      <point x="131.92249999999999" y="827.8"/>
      <point x="177.65" y="827.8" type="curve" smooth="yes"/>
      <point x="224.9328313253012" y="827.8"/>
      <point x="247.55508024022245" y="842.5896739662968"/>
      <point x="254.49" y="884.4" type="curve"/>
      <point x="280.0975" y="884.4" type="line"/>
      <point x="275.9475" y="802.25"/>
      <point x="235.84" y="758.95"/>
    </contour>
    <contour>
      <point x="217.9725" y="923.6" type="curve" smooth="yes"/>
      <point x="256.78" y="923.6"/>
      <point x="281.89544912286584" y="959.4118271051955"/>
      <point x="293.7925" y="1021.35" type="curve"/>
      <point x="268.4975" y="1032.45" type="line"/>
      <point x="263.0475" y="1003.45"/>
      <point x="251.6425" y="985.65"/>
      <point x="234.7425" y="985.65" type="curve" smooth="yes"/>
      <point x="200.56645833333334" y="985.65"/>
      <point x="176.3175" y="1036.2"/>
      <point x="133.70499999999998" y="1036.2" type="curve" smooth="yes"/>
      <point x="92.575" y="1036.2"/>
      <point x="71.50588528364086" y="1002.3917500206188"/>
      <point x="60.885" y="937.55" type="curve"/>
      <point x="86.9025" y="926.55" type="line"/>
      <point x="92.2025" y="958.4"/>
      <point x="102.6075" y="975.2"/>
      <point x="118.635" y="975.2" type="curve" smooth="yes"/>
      <point x="147.39292253521126" y="975.2"/>
      <point x="172.7825" y="923.6"/>
    </contour>
  </outline>
</glyph>
<glyph name="currency.proportional" format="2">
  <advance width="418"/>
  <outline>
    <contour>
      <point x="305.3025" y="373.0" type="curve" smooth="yes"/>
      <point x="305.3025" y="280.55"/>
      <point x="267.7" y="222.1"/>
      <point x="209.0825" y="222.1" type="curve" smooth="yes"/>
      <point x="151.165" y="222.1"/>
      <point x="113.58500000000001" y="281.5"/>
      <point x="113.58500000000001" y="373.0" type="curve" smooth="yes"/>
      <point x="113.58500000000001" y="465.4"/>
      <point x="151.165" y="524.85"/>
      <point x="209.0825" y="524.85" type="curve" smooth="yes"/>
      <point x="267.7" y="524.85"/>
      <point x="305.3025" y="465.4"/>
    </contour>
    <contour>
      <point x="67.0025" y="373.0" type="curve" smooth="yes"/>
      <point x="67.0025" y="258.2"/>
      <point x="130.47" y="176.6"/>
      <point x="209.0825" y="176.6" type="curve" smooth="yes"/>
      <point x="288.44" y="176.6"/>
      <point x="351.885" y="258.2"/>
      <point x="351.885" y="373.0" type="curve" smooth="yes"/>
      <point x="351.885" y="488.75"/>
      <point x="288.44" y="570.35"/>
      <point x="209.0825" y="570.35" type="curve" smooth="yes"/>
      <point x="130.47" y="570.35"/>
      <point x="67.0025" y="488.75"/>
    </contour>
    <contour>
      <point x="37.935" y="583.85" type="line"/>
      <point x="108.325" y="484.3" type="line"/>
      <point x="132.9775" y="526.8" type="line"/>
      <point x="66.5525" y="618.15" type="line"/>
    </contour>
    <contour>
      <point x="380.9525" y="583.85" type="line"/>
      <point x="352.335" y="618.15" type="line"/>
      <point x="285.91" y="526.8" type="line"/>
      <point x="309.7125" y="484.3" type="line"/>
    </contour>
    <contour>
      <point x="37.935" y="163.1" type="line"/>
      <point x="66.5525" y="128.8" type="line"/>
      <point x="136.6325" y="225.85" type="line"/>
      <point x="108.325" y="262.65" type="line"/>
    </contour>
    <contour>
      <point x="380.9525" y="163.1" type="line"/>
      <point x="309.7125" y="262.65" type="line"/>
      <point x="282.255" y="225.85" type="line"/>
      <point x="352.335" y="128.8" type="line"/>
    </contour>
  </outline>
</glyph>
<glyph name="dollar.alt" format="2">
  <advance width="393"/>
  <outline>
    <contour>
      <point x="182.53" y="790.0" type="line"/>
      <point x="182.53" y="684.75" type="line"/>
      <point x="214.9975" y="681.9" type="line"/>
      <point x="214.9975" y="790.0" type="line"/>
    </contour>
    <contour>
      <point x="182.53" y="28.2" type="line"/>
      <point x="182.53" y="-120.0" type="line"/>
      <point x="214.9975" y="-120.0" type="line"/>
      <point x="214.9975" y="24.4" type="line"/>
    </contour>
    <contour>
      <point x="200.3975" y="51.2" type="curve" smooth="yes"/>
      <point x="143.41185000000002" y="51.2"/>
      <point x="98.4118828928575" y="71.30690651892375"/>
      <point x="69.96000000000001" y="138.6" type="curve"/>
      <point x="51.1175" y="109.55"/>
      <point x="77.0875" y="75.65"/>
      <point x="98.38250000000001" y="73.95" type="curve"/>
      <point x="98.38250000000001" y="199.3" type="line"/>
      <point x="27.325" y="199.3" type="line"/>
      <point x="27.325" y="95.2" type="line"/>
      <point x="62.2625" y="49.15"/>
      <point x="122.535458984375" y="12.0"/>
      <point x="203.1475" y="12.0" type="curve" smooth="yes"/>
      <point x="294.2975" y="12.0"/>
      <point x="368.88" y="79.1028326180225"/>
      <point x="368.88" y="208.0" type="curve" smooth="yes"/>
      <point x="368.88" y="336.850945945945"/>
      <point x="297.135376204605" y="378.5706840155075"/>
      <point x="223.1025" y="408.25" type="curve" smooth="yes"/>
      <point x="160.645477557245" y="434.9470533851425"/>
      <point x="106.83500000000001" y="456.6"/>
      <point x="106.83500000000001" y="549.15" type="curve" smooth="yes"/>
      <point x="106.83500000000001" y="615.45"/>
      <point x="138.04559210529" y="659.1"/>
      <point x="202.3325" y="659.1" type="curve" smooth="yes"/>
      <point x="252.509230769185" y="659.1"/>
      <point x="284.140878911555" y="632.5513701566825"/>
      <point x="303.8" y="592.8" type="curve"/>
      <point x="326.9975" y="574.35"/>
      <point x="305.1325" y="639.6"/>
      <point x="279.4825" y="648.9" type="curve"/>
      <point x="279.4825" y="536.15" type="line"/>
      <point x="348.09" y="536.15" type="line"/>
      <point x="348.09" y="637.4" type="line"/>
      <point x="334.9" y="653.8"/>
      <point x="280.5045379146575" y="698.0"/>
      <point x="202.0" y="698.0" type="curve" smooth="yes"/>
      <point x="106.42917040356" y="698.0"/>
      <point x="42.072500000000005" y="628.7"/>
      <point x="42.072500000000005" y="525.0" type="curve" smooth="yes"/>
      <point x="42.072500000000005" y="400.7988409090875"/>
      <point x="108.1983944404475" y="359.0660504835125"/>
      <point x="177.715" y="327.7" type="curve" smooth="yes"/>
      <point x="241.60343741477502" y="298.558229579345"/>
      <point x="303.24" y="277.45"/>
      <point x="303.24" y="179.65" type="curve" smooth="yes"/>
      <point x="303.24" y="85.4"/>
      <point x="262.561481481535" y="51.2"/>
    </contour>
  </outline>
</glyph>
<glyph name="dollar.altprop" format="2">
  <advance width="419"/>
  <outline>
    <contour>
      <point x="212.75" y="51.1" type="curve" smooth="yes"/>
      <point x="153.25" y="51.1"/>
      <point x="105.7775" y="70.1"/>
      <point x="73.7125" y="140.05" type="curve"/>
      <point x="54.27484382320181" y="111.4999956617556"/>
      <point x="83.60169352579032" y="75.69997093786631"/>
      <point x="105.0475" y="74.0" type="curve"/>
      <point x="105.0475" y="199.0" type="line"/>
      <point x="35.625" y="199.0" type="line"/>
      <point x="35.625" y="96.3" type="line"/>
      <point x="71.63499999999999" y="49.05"/>
      <point x="131.4475" y="12.0"/>
      <point x="217.7275" y="12.0" type="curve" smooth="yes"/>
      <point x="313.6375" y="12.0"/>
      <point x="390.015" y="84.35"/>
      <point x="390.015" y="208.0" type="curve" smooth="yes"/>
      <point x="390.015" y="337.05"/>
      <point x="311.65" y="377.75"/>
      <point x="230.445" y="408.55" type="curve" smooth="yes"/>
      <point x="164.74178986574887" y="437.0470032989907"/>
      <point x="110.145" y="456.4"/>
      <point x="110.145" y="547.15" type="curve" smooth="yes"/>
      <point x="110.145" y="617.2970535714286"/>
      <point x="147.6925" y="658.95"/>
      <point x="212.845" y="658.95" type="curve" smooth="yes"/>
      <point x="267.155" y="658.95"/>
      <point x="303.005" y="633.65"/>
      <point x="324.6" y="592.95" type="curve"/>
      <point x="347.95937828159714" y="574.5964594271991"/>
      <point x="324.8058210309075" y="640.0000280694327"/>
      <point x="299.40500000000003" y="649.3" type="curve"/>
      <point x="299.40500000000003" y="536.0" type="line"/>
      <point x="364.86" y="536.0" type="line"/>
      <point x="364.86" y="636.15" type="line"/>
      <point x="350.8525" y="652.8"/>
      <point x="292.4175" y="698.0"/>
      <point x="210.89" y="698.0" type="curve" smooth="yes"/>
      <point x="116.57" y="698.0"/>
      <point x="47.8575" y="629.75"/>
      <point x="47.8575" y="522.3" type="curve" smooth="yes"/>
      <point x="47.8575" y="400.95"/>
      <point x="118.635" y="360.85"/>
      <point x="193.56" y="327.55" type="curve" smooth="yes"/>
      <point x="263.35297735552217" y="296.69878860626"/>
      <point x="325.91" y="277.1"/>
      <point x="325.91" y="181.4" type="curve" smooth="yes"/>
      <point x="325.91" y="87.09711538461538"/>
      <point x="278.625" y="51.1"/>
    </contour>
    <contour>
      <point x="192.79749999999999" y="790.0" type="line"/>
      <point x="192.79749999999999" y="683.75" type="line"/>
      <point x="225.5325" y="681.3" type="line"/>
      <point x="225.5325" y="790.0" type="line"/>
    </contour>
    <contour>
      <point x="192.79749999999999" y="27.7" type="line"/>
      <point x="192.79749999999999" y="-120.0" type="line"/>
      <point x="225.5325" y="-120.0" type="line"/>
      <point x="225.5325" y="23.85" type="line"/>
    </contour>
  </outline>
</glyph>
<glyph name="eight.den" format="2">
  <advance width="238"/>
  <outline>
    <contour>
      <point x="118.8825" y="320.85" type="curve" smooth="yes"/>
      <point x="97.2225" y="320.85"/>
      <point x="84.635" y="297.2104166666667"/>
      <point x="84.635" y="253.1" type="curve" smooth="yes"/>
      <point x="84.635" y="214.46028846153845"/>
      <point x="97.245" y="194.65"/>
      <point x="118.8825" y="194.65" type="curve" smooth="yes"/>
      <point x="140.265" y="194.65"/>
      <point x="153.8525" y="214.46028846153845"/>
      <point x="153.8525" y="253.1" type="curve" smooth="yes"/>
      <point x="153.8525" y="297.2104166666667"/>
      <point x="140.415" y="320.85"/>
    </contour>
    <contour>
      <point x="118.8825" y="190.2" type="curve" smooth="yes"/>
      <point x="181.115" y="190.2"/>
      <point x="223.5875" y="155.1"/>
      <point x="223.5875" y="95.0" type="curve" smooth="yes"/>
      <point x="223.5875" y="36.3"/>
      <point x="183.27352631578" y="-6.0"/>
      <point x="118.8825" y="-6.0" type="curve" smooth="yes"/>
      <point x="55.2367105263165" y="-6.0"/>
      <point x="14.9" y="36.3"/>
      <point x="14.9" y="95.0" type="curve" smooth="yes"/>
      <point x="14.9" y="155.15"/>
      <point x="56.6725" y="190.2"/>
    </contour>
    <contour>
      <point x="118.8825" y="168.4" type="curve" smooth="yes"/>
      <point x="92.44" y="168.4"/>
      <point x="76.475" y="144.492109375"/>
      <point x="76.475" y="98.05" type="curve" smooth="yes"/>
      <point x="76.475" y="49.5408064516129"/>
      <point x="92.74" y="21.05"/>
      <point x="118.8825" y="21.05" type="curve" smooth="yes"/>
      <point x="144.8975" y="21.05"/>
      <point x="161.29" y="49.5408064516129"/>
      <point x="161.29" y="98.05" type="curve" smooth="yes"/>
      <point x="161.29" y="144.492109375"/>
      <point x="145.1975" y="168.4"/>
    </contour>
    <contour>
      <point x="118.8825" y="175.85" type="curve" smooth="yes"/>
      <point x="62.8225" y="175.85"/>
      <point x="27.455" y="207.05"/>
      <point x="27.455" y="259.3" type="curve" smooth="yes"/>
      <point x="27.455" y="311.4"/>
      <point x="62.5" y="347.9"/>
      <point x="118.8825" y="347.9" type="curve" smooth="yes"/>
      <point x="175.31" y="347.9"/>
      <point x="211.0325" y="311.4"/>
      <point x="211.0325" y="259.3" type="curve" smooth="yes"/>
      <point x="211.0325" y="207.05"/>
      <point x="174.6875" y="175.85"/>
    </contour>
  </outline>
</glyph>
<glyph name="f_h" format="2">
  <advance width="696"/>
  <outline>
    <contour>
      <point x="16.575" y="517.8" type="line"/>
      <point x="16.575" y="483.15" type="line"/>
      <point x="249.89249999999998" y="483.15" type="line"/>
      <point x="249.89249999999998" y="517.8" type="line"/>
    </contour>
    <contour>
      <point x="432.5425000000001" y="0.0" type="line"/>
      <point x="611.2075" y="0.0" type="line"/>
      <point x="611.2075" y="32.3" type="line"/>
      <point x="610.035" y="32.3" type="line" smooth="yes"/>
      <point x="581.1925" y="32.3"/>
      <point x="560.5225" y="39.05"/>
      <point x="560.5225" y="66.9" type="curve"/>
      <point x="560.5225" y="377.4" type="line" smooth="yes"/>
      <point x="560.5225" y="481.8"/>
      <point x="527.675" y="534.25"/>
      <point x="474.455" y="534.25" type="curve" smooth="yes"/>
      <point x="421.13" y="534.25"/>
      <point x="389.48249999999996" y="479.7"/>
      <point x="358.29" y="388.25" type="curve"/>
      <point x="378.5875" y="371.95" type="line"/>
      <point x="402.75" y="455.0"/>
      <point x="425.0" y="503.8"/>
      <point x="457.80499999999995" y="503.8" type="curve" smooth="yes"/>
      <point x="476.89" y="503.8"/>
      <point x="481.50749999999994" y="468.8"/>
      <point x="481.50749999999994" y="375.55" type="curve" smooth="yes"/>
      <point x="481.50749999999994" y="43.3" type="line" smooth="yes"/>
      <point x="481.50749999999994" y="35.65"/>
      <point x="454.055" y="32.3"/>
      <point x="433.8324999999999" y="32.3" type="curve" smooth="yes"/>
      <point x="432.5425000000001" y="32.3" type="line"/>
    </contour>
    <contour>
      <point x="296.0375" y="0.0" type="line"/>
      <point x="446.65749999999997" y="3.8000000000000007" type="line"/>
      <point x="446.335" y="32.3" type="line" smooth="yes"/>
      <point x="445.34499999999997" y="32.3"/>
      <point x="443.4325" y="32.4"/>
      <point x="443.4325" y="32.7" type="curve"/>
      <point x="421.5025" y="32.7"/>
      <point x="400.295" y="68.80000000000007"/>
      <point x="400.295" y="74.5" type="curve"/>
      <point x="370.94" y="749.0" type="line"/>
      <point x="274.3375" y="746.1" type="line"/>
      <point x="321.2575" y="683.45" type="line"/>
      <point x="321.2575" y="683.15"/>
      <point x="319.47249999999997" y="66.5"/>
      <point x="318.4825" y="66.5" type="curve" smooth="yes"/>
      <point x="318.4825" y="38.95"/>
      <point x="300.58500000000004" y="32.3"/>
      <point x="263.9075" y="32.3" type="curve"/>
      <point x="263.78" y="28.5" type="line"/>
    </contour>
    <contour>
      <point x="97.94999999999999" y="4.200000000000003" type="line" smooth="yes"/>
      <point x="97.94999999999999" y="3.8999999999999986"/>
      <point x="263.36" y="3.8000000000000007"/>
      <point x="262.06999999999994" y="3.8000000000000007" type="curve" smooth="yes"/>
      <point x="261.92" y="32.3" type="line"/>
      <point x="258.265" y="28.5" type="line"/>
      <point x="228.87045454545458" y="28.5"/>
      <point x="239.29250000000002" y="31.349999999999998"/>
      <point x="239.29250000000002" y="51.3" type="curve"/>
      <point x="239.29250000000002" y="546.25" type="line"/>
      <point x="239.29250000000002" y="649.8000000000001"/>
      <point x="260.3275" y="691.6"/>
      <point x="310.775" y="691.6" type="curve" smooth="yes"/>
      <point x="348.3225" y="691.6"/>
      <point x="386.4144614915672" y="669.0463816337342"/>
      <point x="394.7575" y="660.6" type="curve" smooth="yes"/>
      <point x="401.2175" y="706.85" type="line" smooth="yes"/>
      <point x="392.8025" y="723.15"/>
      <point x="336.87" y="746.3"/>
      <point x="288.73249999999996" y="746.3" type="curve" smooth="yes"/>
      <point x="203.04749999999999" y="746.3"/>
      <point x="147.2875" y="683.2"/>
      <point x="143.74" y="562.7" type="curve"/>
      <point x="145.5025" y="79.00000000000003" type="line"/>
      <point x="147.2875" y="53.650000000000034"/>
      <point x="129.615" y="48.44999999999999"/>
      <point x="100.53999999999996" y="48.44999999999999" type="curve" smooth="yes"/>
      <point x="103.44250000000005" y="48.44999999999999"/>
      <point x="97.94999999999999" y="47.60000000000002"/>
      <point x="97.94999999999999" y="45.900000000000034" type="curve" smooth="yes"/>
    </contour>
  </outline>
</glyph>
<glyph name="f_i.alt" format="2">
  <advance width="459"/>
  <outline>
    <contour>
      <point x="19.5" y="518.0" type="line"/>
      <point x="19.5" y="486.0" type="line"/>
      <point x="295.05" y="486.0" type="line"/>
      <point x="295.05" y="518.0" type="line"/>
    </contour>
    <contour>
      <point x="214.05" y="724.0" type="curve" smooth="yes"/>
      <point x="236.7" y="724.0"/>
      <point x="251.75" y="717.0"/>
      <point x="259.5" y="713.0" type="curve"/>
      <point x="259.5" y="749.0" type="line"/>
      <point x="251.9" y="754.0"/>
      <point x="233.55" y="758.0"/>
      <point x="212.9" y="758.0" type="curve" smooth="yes"/>
      <point x="134.09652406417112" y="758.0"/>
      <point x="88.6" y="697.0"/>
      <point x="88.6" y="582.0" type="curve" smooth="yes"/>
      <point x="88.6" y="66.0" type="line" smooth="yes"/>
      <point x="88.6" y="37.0"/>
      <point x="63.8" y="30.0"/>
      <point x="23.8" y="30.0" type="curve" smooth="yes"/>
      <point x="19.5" y="30.0" type="line"/>
      <point x="19.5" y="0.0" type="line"/>
      <point x="224.8" y="0.0" type="line"/>
      <point x="224.8" y="30.0" type="line"/>
      <point x="220.5" y="30.0" type="line" smooth="yes"/>
      <point x="181.5" y="30.0"/>
      <point x="151.25" y="33.0"/>
      <point x="151.25" y="54.0" type="curve" smooth="yes"/>
      <point x="151.25" y="582.0" type="line" smooth="yes"/>
      <point x="151.25" y="683.0"/>
      <point x="166.525" y="724.0"/>
    </contour>
    <contour>
      <point x="355.55" y="642.0" type="curve" smooth="yes"/>
      <point x="380.35" y="642.0"/>
      <point x="398.7" y="665.0"/>
      <point x="398.7" y="703.0" type="curve" smooth="yes"/>
      <point x="398.7" y="740.0"/>
      <point x="380.35" y="763.0"/>
      <point x="355.55" y="763.0" type="curve" smooth="yes"/>
      <point x="330.75" y="763.0"/>
      <point x="312.25" y="740.0"/>
      <point x="312.25" y="703.0" type="curve" smooth="yes"/>
      <point x="312.25" y="665.0"/>
      <point x="330.75" y="642.0"/>
    </contour>
    <contour>
      <point x="443.0" y="0.0" type="line"/>
      <point x="443.0" y="30.0" type="line"/>
      <point x="441.0" y="30.0" type="line" smooth="yes"/>
      <point x="410.6" y="30.0"/>
      <point x="387.95" y="37.0"/>
      <point x="387.95" y="66.0" type="curve" smooth="yes"/>
      <point x="387.95" y="518.0" type="line"/>
      <point x="261.5" y="518.0" type="line"/>
      <point x="261.5" y="486.0" type="line"/>
      <point x="266.95" y="486.0" type="line" smooth="yes"/>
      <point x="300.5" y="486.0"/>
      <point x="325.3" y="472.0"/>
      <point x="325.3" y="443.0" type="curve" smooth="yes"/>
      <point x="325.3" y="66.0" type="line" smooth="yes"/>
      <point x="325.3" y="37.0"/>
      <point x="302.5" y="30.0"/>
      <point x="271.25" y="30.0" type="curve" smooth="yes"/>
      <point x="270.1" y="30.0" type="line"/>
      <point x="270.1" y="0.0" type="line"/>
    </contour>
  </outline>
</glyph>
<glyph name="five.lin" format="2">
  <advance width="393"/>
  <outline>
    <contour>
      <point x="186.145" y="-10.95" type="curve" smooth="yes"/>
      <point x="94.7375" y="-10.95"/>
      <point x="45.17" y="55.3"/>
      <point x="20.07" y="136.0" type="curve"/>
      <point x="45.71" y="159.8" type="line"/>
      <point x="65.415" y="88.75"/>
      <point x="109.24" y="22.65"/>
      <point x="176.77" y="22.65" type="curve" smooth="yes"/>
      <point x="250.115" y="22.65"/>
      <point x="288.995" y="106.15"/>
      <point x="288.995" y="236.25" type="curve" smooth="yes"/>
      <point x="288.995" y="358.15"/>
      <point x="255.04749999999999" y="431.95"/>
      <point x="191.3575" y="431.95" type="curve" smooth="yes"/>
      <point x="142.81" y="431.95"/>
      <point x="112.84" y="397.35"/>
      <point x="87.065" y="337.15" type="curve"/>
      <point x="59.8525" y="337.15" type="line"/>
      <point x="59.8525" y="710.0" type="line"/>
      <point x="338.34000000000003" y="710.0" type="line"/>
      <point x="321.98" y="624.1" type="line"/>
      <point x="78.9475" y="624.1" type="line"/>
      <point x="93.6425" y="690.0" type="line"/>
      <point x="93.6425" y="375.1" type="line"/>
      <point x="89.365" y="351.6"/>
      <point x="84.525" y="356.15"/>
      <point x="80.475" y="365.15" type="curve"/>
      <point x="107.23" y="425.85"/>
      <point x="151.745" y="465.1"/>
      <point x="208.5475" y="465.1" type="curve" smooth="yes"/>
      <point x="311.53" y="465.1"/>
      <point x="368.5575" y="357.65"/>
      <point x="368.5575" y="236.2" type="curve" smooth="yes"/>
      <point x="368.5575" y="90.8"/>
      <point x="296.835" y="-10.95"/>
    </contour>
  </outline>
</glyph>
<glyph name="five.oldprop" format="2">
  <advance width="385"/>
  <outline>
    <contour>
      <point x="180" y="-151" type="curve" smooth="yes"/>
      <point x="99" y="-151"/>
      <point x="41" y="-105"/>
      <point x="20" y="-24" type="curve"/>
      <point x="52" y="-13" type="line"/>
      <point x="70" y="-81"/>
      <point x="115" y="-118"/>
      <point x="169" y="-118" type="curve" smooth="yes"/>
      <point x="248" y="-118"/>
      <point x="280" y="-47"/>
      <point x="280" y="87" type="curve" smooth="yes"/>
      <point x="280" y="203"/>
      <point x="255" y="271"/>
      <point x="185" y="271" type="curve" smooth="yes"/>
      <point x="151" y="271"/>
      <point x="109" y="255"/>
      <point x="83" y="187" type="curve"/>
      <point x="60" y="187" type="line"/>
      <point x="60" y="548" type="line"/>
      <point x="339" y="548" type="line"/>
      <point x="328" y="473" type="line"/>
      <point x="75" y="473" type="line"/>
      <point x="101" y="528" type="line"/>
      <point x="101" y="235" type="line"/>
      <point x="99" y="222"/>
      <point x="79" y="207"/>
      <point x="76" y="215" type="curve"/>
      <point x="104" y="283"/>
      <point x="149" y="305"/>
      <point x="201" y="305" type="curve" smooth="yes"/>
      <point x="310" y="305"/>
      <point x="360" y="210"/>
      <point x="360" y="87" type="curve" smooth="yes"/>
      <point x="360" y="-54"/>
      <point x="294" y="-151"/>
    </contour>
  </outline>
</glyph>
<glyph name="four.den" format="2">
  <advance width="235"/>
  <outline>
    <contour>
      <point x="12.91" y="84.05" type="line"/>
      <point x="226.8225" y="84.05" type="line"/>
      <point x="226.8225" y="138.65" type="line"/>
      <point x="34.3575" y="138.65" type="line"/>
      <point x="35.0325" y="117.9" type="line"/>
      <point x="139.0275" y="310.55" type="line"/>
      <point x="157.5475" y="342.9" type="line"/>
      <point x="130.975" y="342.9" type="line"/>
      <point x="12.91" y="123.55" type="line"/>
    </contour>
    <contour>
      <point x="188.4575" y="0.0" type="line"/>
      <point x="188.4575" y="342.9" type="line"/>
      <point x="140.0375" y="342.9" type="line"/>
      <point x="130.805" y="313.4" type="line"/>
      <point x="130.805" y="0.0" type="line"/>
    </contour>
  </outline>
</glyph>
<glyph name="franc.proportional" format="2">
  <advance width="413"/>
  <outline>
    <contour>
      <point x="181.3" y="672.15" type="line"/>
      <point x="271.24" y="672.15" type="line" smooth="yes"/>
      <point x="327.8475" y="672.15"/>
      <point x="350.82" y="658.5"/>
      <point x="355.775" y="616.8" type="curve" smooth="yes"/>
      <point x="366.53499999999997" y="526.6" type="line"/>
      <point x="396.97" y="526.6" type="line"/>
      <point x="396.97" y="710.0" type="line"/>
      <point x="42.01" y="710.0" type="line"/>
      <point x="42.01" y="677.4" type="line"/>
      <point x="46.7825" y="677.4" type="line" smooth="yes"/>
      <point x="74.97" y="677.4"/>
      <point x="99.09" y="670.4"/>
      <point x="99.09" y="641.4" type="curve" smooth="yes"/>
      <point x="99.09" y="68.6" type="line" smooth="yes"/>
      <point x="99.09" y="39.6"/>
      <point x="75.0975" y="32.6"/>
      <point x="46.7825" y="32.6" type="curve" smooth="yes"/>
      <point x="42.01" y="32.6" type="line"/>
      <point x="42.01" y="0.0" type="line"/>
      <point x="250.6025" y="0.0" type="line"/>
      <point x="250.6025" y="32.6" type="line"/>
      <point x="237.8525" y="32.6" type="line" smooth="yes"/>
      <point x="212.3425" y="32.6"/>
      <point x="181.3" y="35.5"/>
      <point x="181.3" y="59.1" type="curve" smooth="yes"/>
    </contour>
    <contour>
      <point x="173.0425" y="404.15" type="curve"/>
      <point x="173.0425" y="371.7" type="line"/>
      <point x="235.56" y="369.8"/>
      <point x="300.9425" y="366.25"/>
      <point x="339.575" y="349.15" type="curve"/>
      <point x="339.575" y="424.8" type="line"/>
      <point x="300.9425" y="409.6"/>
      <point x="235.56" y="406.05"/>
    </contour>
    <contour>
      <point x="42.01" y="221.85" type="line"/>
      <point x="42.01" y="187.25" type="line"/>
      <point x="281.345" y="187.25" type="line"/>
      <point x="281.345" y="221.85" type="line"/>
    </contour>
  </outline>
</glyph>
<glyph name="hook.uc" format="2">
  <advance width="358"/>
  <anchor x="157.7" y="679.0" name="_top"/>
  <outline>
    <contour>
      <point x="79.86" y="882.45" type="line"/>
      <point x="82.31003229707483" y="928.850415112403"/>
      <point x="110.73282608695652" y="967.6"/>
      <point x="167.9025" y="967.6" type="curve" smooth="yes"/>
      <point x="222.0274342105263" y="967.6"/>
      <point x="253.2775" y="936.6"/>
      <point x="253.2775" y="885.25" type="curve" smooth="yes"/>
      <point x="253.2775" y="824.8"/>
      <point x="210.07131424603907" y="797.320511152985"/>
      <point x="159.82999999999998" y="791.45" type="curve"/>
      <point x="177.255" y="817.45" type="line"/>
      <point x="177.255" y="755.35" type="line"/>
      <point x="144.81" y="755.35" type="line"/>
      <point x="144.81" y="813.1" type="line"/>
      <point x="179.51019629728137" y="818.9886603297828"/>
      <point x="194.8725" y="842.3"/>
      <point x="194.8725" y="883.6" type="curve" smooth="yes"/>
      <point x="194.8725" y="915.0"/>
      <point x="184.6035" y="935.5"/>
      <point x="162.935" y="935.5" type="curve" smooth="yes"/>
      <point x="140.17311320754717" y="935.5"/>
      <point x="127.87" y="912.95"/>
      <point x="126.57" y="882.45" type="curve"/>
    </contour>
  </outline>
</glyph>
<glyph name="literSign" format="2">
  <advance width="372"/>
  <outline>
    <contour>
      <point x="174.18" y="239.05" type="curve" smooth="yes"/>
      <point x="174.18" y="579.55"/>
      <point x="203.82999999999998" y="684.85"/>
      <point x="243.6775" y="684.85" type="curve" smooth="yes"/>
      <point x="270.025" y="684.85"/>
      <point x="278.13" y="646.05"/>
      <point x="278.13" y="575.15" type="curve" smooth="yes"/>
      <point x="278.13" y="391.85"/>
      <point x="191.2625" y="295.95"/>
      <point x="29.380000000000003" y="228.8" type="curve"/>
      <point x="36.2475" y="198.7" type="line"/>
      <point x="206.8275" y="269.5"/>
      <point x="336.385" y="406.45"/>
      <point x="336.385" y="574.95" type="curve" smooth="yes"/>
      <point x="336.385" y="654.65"/>
      <point x="307.8225" y="719.5"/>
      <point x="246.71" y="719.5" type="curve" smooth="yes"/>
      <point x="159.5239222614775" y="719.5"/>
      <point x="101.9175" y="583.15"/>
      <point x="101.9175" y="239.25" type="curve" smooth="yes"/>
      <point x="101.9175" y="53.0"/>
      <point x="146.1395851063825" y="-10.0"/>
      <point x="219.9525" y="-10.0" type="curve" smooth="yes"/>
      <point x="280.755" y="-10.0"/>
      <point x="316.745" y="59.4"/>
      <point x="333.89" y="132.4" type="curve"/>
      <point x="309.7025" y="145.6" type="line"/>
      <point x="292.525" y="74.05"/>
      <point x="266.37" y="25.15"/>
      <point x="227.65" y="25.15" type="curve" smooth="yes"/>
      <point x="192.597966101685" y="25.15"/>
      <point x="174.18" y="58.95"/>
    </contour>
  </outline>
</glyph>
<glyph name="naira.proportional" format="2">
  <advance width="497"/>
  <outline>
    <contour>
      <point x="103.0275" y="690.9" type="line"/>
      <point x="349.075" y="0.0" type="line"/>
      <point x="421.705" y="0.0" type="line"/>
      <point x="421.705" y="614.8" type="line" smooth="yes"/>
      <point x="421.705" y="659.95"/>
      <point x="446.42" y="677.4"/>
      <point x="471.2075" y="677.4" type="curve" smooth="yes"/>
      <point x="478.78499999999997" y="677.4" type="line"/>
      <point x="478.78499999999997" y="710.0" type="line"/>
      <point x="320.09749999999997" y="710.0" type="line"/>
      <point x="320.09749999999997" y="677.4" type="line"/>
      <point x="336.985" y="677.4" type="line" smooth="yes"/>
      <point x="365.3" y="677.4"/>
      <point x="386.455" y="671.3"/>
      <point x="386.455" y="644.35" type="curve" smooth="yes"/>
      <point x="386.455" y="86.19999999999999" type="line"/>
      <point x="399.0225" y="90.1" type="line"/>
      <point x="182.8475" y="710.0" type="line"/>
      <point x="23.4875" y="710.0" type="line"/>
      <point x="23.4875" y="677.4" type="line"/>
      <point x="31.7875" y="677.4" type="line" smooth="yes"/>
      <point x="54.7475" y="677.4"/>
      <point x="80.5675" y="670.4"/>
      <point x="80.5675" y="641.4" type="curve" smooth="yes"/>
      <point x="80.5675" y="95.45" type="line" smooth="yes"/>
      <point x="80.5675" y="50.3"/>
      <point x="56.575" y="32.6"/>
      <point x="31.7875" y="32.6" type="curve" smooth="yes"/>
      <point x="23.4875" y="32.6" type="line"/>
      <point x="23.4875" y="0.0" type="line"/>
      <point x="182.8975" y="0.0" type="line"/>
      <point x="182.8975" y="32.6" type="line"/>
      <point x="166.01" y="32.6" type="line" smooth="yes"/>
      <point x="137.545" y="32.6"/>
      <point x="116.54" y="38.7"/>
      <point x="116.54" y="65.65" type="curve" smooth="yes"/>
      <point x="116.54" y="694.9" type="line"/>
    </contour>
    <contour>
      <point x="96.0275" y="450.3" type="line"/>
      <point x="23.4875" y="450.3" type="line"/>
      <point x="23.4875" y="415.65" type="line"/>
      <point x="95.05" y="415.65" type="line"/>
    </contour>
    <contour>
      <point x="403.42" y="256.4" type="line"/>
      <point x="478.785" y="256.4" type="line"/>
      <point x="478.785" y="291.05" type="line"/>
      <point x="404.3975" y="291.05" type="line"/>
    </contour>
    <contour>
      <point x="247.6625" y="416.15" type="line"/>
      <point x="394.485" y="416.15" type="line"/>
      <point x="407.2025" y="415.65" type="line"/>
      <point x="478.785" y="415.65" type="line"/>
      <point x="478.785" y="450.3" type="line"/>
      <point x="246.4175" y="450.3" type="line"/>
    </contour>
    <contour>
      <point x="299.875" y="256.4" type="line"/>
      <point x="283.5275" y="290.55" type="line"/>
      <point x="101.21000000000001" y="290.55" type="line"/>
      <point x="88.5975" y="291.05" type="line"/>
      <point x="23.4875" y="291.05" type="line"/>
      <point x="23.4875" y="256.4" type="line"/>
    </contour>
  </outline>
</glyph>
<glyph name="nine.lin" format="2">
  <advance width="393"/>
  <outline>
    <contour>
      <point x="62.0475" y="13.3" type="line"/>
      <point x="203.1475" y="27.55"/>
      <point x="287.19" y="172.65"/>
      <point x="287.19" y="407.75" type="curve" smooth="yes"/>
      <point x="287.19" y="613.85"/>
      <point x="251.05" y="687.0"/>
      <point x="191.2625" y="687.0" type="curve" smooth="yes"/>
      <point x="134.235" y="687.0"/>
      <point x="101.9" y="618.5"/>
      <point x="101.9" y="498.75" type="curve" smooth="yes"/>
      <point x="101.9" y="382.6"/>
      <point x="126.1525" y="313.85"/>
      <point x="184.425" y="313.85" type="curve" smooth="yes"/>
      <point x="234.97" y="313.85"/>
      <point x="277.8375" y="381.9"/>
      <point x="299.22" y="461.9" type="curve"/>
      <point x="298.37" y="451.45"/>
      <point x="304.475" y="439.15"/>
      <point x="306.3025" y="433.45" type="curve"/>
      <point x="287.965" y="358.25"/>
      <point x="239.085" y="278.95"/>
      <point x="164.4925" y="278.95" type="curve" smooth="yes"/>
      <point x="82.87" y="278.95"/>
      <point x="20.865000000000002" y="356.55"/>
      <point x="20.865000000000002" y="498.4" type="curve" smooth="yes"/>
      <point x="20.865000000000002" y="632.0"/>
      <point x="90.61" y="720.0"/>
      <point x="190.6175" y="720.0" type="curve" smooth="yes"/>
      <point x="293.4925" y="720.0"/>
      <point x="366.925" y="622.4"/>
      <point x="366.925" y="407.2" type="curve" smooth="yes"/>
      <point x="366.925" y="172.65"/>
      <point x="252.5775" y="4.3999999999999995"/>
      <point x="65.465" y="-14.95" type="curve"/>
    </contour>
  </outline>
</glyph>
<glyph name="one.den" format="2">
  <advance width="233"/>
  <outline>
    <contour>
      <point x="156" y="44.0" type="curve" smooth="yes"/>
      <point x="156" y="343" type="line"/>
      <point x="109" y="343" type="line"/>
      <point x="94" y="315"/>
      <point x="72" y="299"/>
      <point x="30" y="298" type="curve"/>
      <point x="30" y="260" type="line"/>
      <point x="60" y="261"/>
      <point x="94" y="281"/>
      <point x="104" y="319" type="curve"/>
      <point x="103" y="326"/>
      <point x="102" y="323"/>
      <point x="96" y="313" type="curve"/>
      <point x="96" y="44.0" type="line" smooth="yes"/>
      <point x="96.0" y="26.0"/>
      <point x="79" y="22"/>
      <point x="54" y="22" type="curve" smooth="yes"/>
      <point x="37" y="22" type="line"/>
      <point x="37" y="0.0" type="line"/>
      <point x="213" y="0.0" type="line"/>
      <point x="213" y="22" type="line"/>
      <point x="201" y="22" type="line" smooth="yes"/>
      <point x="174" y="22"/>
      <point x="156" y="26"/>
    </contour>
  </outline>
</glyph>
<glyph name="one.lin" format="2">
  <advance width="393"/>
  <outline>
    <contour>
      <point x="256.03" y="73.85" type="curve" smooth="yes"/>
      <point x="256.03" y="710.0" type="line"/>
      <point x="198.955" y="710.0" type="line"/>
      <point x="176.005" y="652.5"/>
      <point x="127.2025" y="628.3"/>
      <point x="55.64" y="627.3" type="curve"/>
      <point x="55.64" y="569.55" type="line"/>
      <point x="116.1075" y="567.6"/>
      <point x="172.5325" y="615.35"/>
      <point x="185.7" y="668.3" type="curve"/>
      <point x="182.5825" y="664.15"/>
      <point x="180.145" y="661.65"/>
      <point x="176.005" y="654.65" type="curve"/>
      <point x="176.005" y="73.85" type="line" smooth="yes"/>
      <point x="176.005" y="42.45"/>
      <point x="146.915" y="34.5"/>
      <point x="95.8" y="34.5" type="curve" smooth="yes"/>
      <point x="67.8625" y="34.5" type="line"/>
      <point x="67.8625" y="0.0" type="line"/>
      <point x="363.5825" y="0.0" type="line"/>
      <point x="363.5825" y="34.5" type="line"/>
      <point x="342.695" y="34.5" type="line" smooth="yes"/>
      <point x="287.43" y="34.5"/>
      <point x="256.03" y="42.45"/>
    </contour>
  </outline>
</glyph>
<glyph name="one.linprop" format="2">
  <advance width="391"/>
  <outline>
    <contour>
      <point x="258" y="71" type="curve" smooth="yes"/>
      <point x="258" y="710" type="line"/>
      <point x="204" y="710" type="line"/>
      <point x="179" y="652"/>
      <point x="129" y="628"/>
      <point x="55" y="627" type="curve"/>
      <point x="55" y="569" type="line"/>
      <point x="114" y="568"/>
      <point x="175" y="617"/>
      <point x="189" y="669" type="curve"/>
      <point x="187" y="664"/>
      <point x="178" y="663"/>
      <point x="175" y="656" type="curve"/>
      <point x="175" y="71" type="line" smooth="yes"/>
      <point x="175" y="40"/>
      <point x="146" y="32"/>
      <point x="95" y="32" type="curve" smooth="yes"/>
      <point x="67" y="32" type="line"/>
      <point x="67" y="0" type="line"/>
      <point x="366" y="0" type="line"/>
      <point x="366" y="32" type="line"/>
      <point x="344" y="32" type="line" smooth="yes"/>
      <point x="289" y="32"/>
      <point x="258" y="40"/>
    </contour>
  </outline>
</glyph>
<glyph name="one.oldprop" format="2">
  <advance width="387"/>
  <outline>
    <contour>
      <point x="255" y="71" type="curve" smooth="yes"/>
      <point x="255" y="548" type="line"/>
      <point x="201" y="548" type="line"/>
      <point x="176" y="490"/>
      <point x="129" y="466"/>
      <point x="55" y="465" type="curve"/>
      <point x="55" y="407" type="line"/>
      <point x="114" y="406"/>
      <point x="172" y="455"/>
      <point x="186" y="507" type="curve"/>
      <point x="184" y="502"/>
      <point x="175" y="501"/>
      <point x="172" y="494" type="curve"/>
      <point x="172" y="71" type="line" smooth="yes"/>
      <point x="172" y="40"/>
      <point x="143" y="32"/>
      <point x="92" y="32" type="curve" smooth="yes"/>
      <point x="67" y="32" type="line"/>
      <point x="67" y="0" type="line"/>
      <point x="362" y="0" type="line"/>
      <point x="362" y="32" type="line"/>
      <point x="341" y="32" type="line" smooth="yes"/>
      <point x="286" y="32"/>
      <point x="255" y="40"/>
    </contour>
  </outline>
</glyph>
<glyph name="plus.sub" format="2">
  <advance width="282"/>
  <outline>
    <contour>
      <point x="126.33" y="235.0" type="line"/>
      <point x="126.33" y="-75.0" type="line"/>
      <point x="154.0875" y="-75.0" type="line"/>
      <point x="154.0875" y="235.0" type="line"/>
    </contour>
    <contour>
      <point x="246.79500000000002" y="93.85" type="line"/>
      <point x="35.3225" y="93.85" type="line"/>
      <point x="35.3225" y="66.15" type="line"/>
      <point x="246.79500000000002" y="66.15" type="line"/>
    </contour>
  </outline>
</glyph>
<glyph name="ringhalfright" format="2">
  <advance width="351"/>
  <anchor x="175.9225" y="566.0" name="_top"/>
  <outline>
    <contour>
      <point x="174.2225" y="774.35" type="line"/>
      <point x="214.835" y="774.35"/>
      <point x="247.64249999999998" y="739.5"/>
      <point x="247.64249999999998" y="679.1" type="curve" smooth="yes"/>
      <point x="247.64249999999998" y="618.75"/>
      <point x="214.98499999999999" y="583.85"/>
      <point x="174.2225" y="583.85" type="curve"/>
      <point x="174.2225" y="603.25" type="line"/>
      <point x="203.3775" y="603.25"/>
      <point x="225.47" y="624.05"/>
      <point x="225.47" y="679.1" type="curve" smooth="yes"/>
      <point x="225.47" y="734.15"/>
      <point x="203.3775" y="754.95"/>
      <point x="174.2225" y="754.95" type="curve"/>
    </contour>
  </outline>
</glyph>
<glyph name="seven.den" format="2">
  <advance width="232"/>
  <outline>
    <contour>
      <point x="101.155" y="285.25" type="line" smooth="yes"/>
      <point x="69.7675" y="285.25"/>
      <point x="57.459611912077776" y="281.25572566282653"/>
      <point x="54.5125" y="258.25" type="curve" smooth="yes"/>
      <point x="49.535" y="209.6" type="line"/>
      <point x="28.2825" y="209.6" type="line"/>
      <point x="28.2825" y="342.85" type="line"/>
      <point x="216.7375" y="342.85" type="line"/>
      <point x="216.7375" y="297.25" type="line"/>
      <point x="164.13163889821973" y="211.27708018311003"/>
      <point x="141.50342393846935" y="145.06935993002256"/>
      <point x="136.7175" y="0.0" type="curve"/>
      <point x="76.01" y="0.0" type="line"/>
      <point x="86.99402309584764" y="121.6551345490945"/>
      <point x="166.9156735291237" y="264.6941447370185"/>
      <point x="198.98" y="298.95" type="curve"/>
      <point x="200.915" y="285.25" type="line"/>
    </contour>
  </outline>
</glyph>
<glyph name="seven.midprop" format="2">
  <advance width="371"/>
  <outline>
    <contour>
      <point x="152" y="534" type="line" smooth="yes"/>
      <point x="88" y="534"/>
      <point x="80" y="527"/>
      <point x="70" y="478" type="curve" smooth="yes"/>
      <point x="54" y="401" type="line"/>
      <point x="30" y="401" type="line"/>
      <point x="30" y="609" type="line"/>
      <point x="356" y="609" type="line"/>
      <point x="356" y="558" type="line"/>
      <point x="276" y="395"/>
      <point x="224" y="254"/>
      <point x="199" y="-77" type="curve"/>
      <point x="119" y="-77" type="line"/>
      <point x="152" y="227"/>
      <point x="295" y="504"/>
      <point x="338" y="569" type="curve"/>
      <point x="341" y="534" type="line"/>
    </contour>
  </outline>
</glyph>
<glyph name="seven.old" format="2">
  <advance width="393"/>
  <outline>
    <contour>
      <point x="163.3325" y="471.6" type="line" smooth="yes"/>
      <point x="105.5625" y="471.6"/>
      <point x="83.88" y="460.8"/>
      <point x="76.94749999999999" y="407.7" type="curve" smooth="yes"/>
      <point x="66.0375" y="326.2" type="line"/>
      <point x="38.355000000000004" y="326.2" type="line"/>
      <point x="38.355000000000004" y="548.0" type="line"/>
      <point x="368.1075" y="548.0" type="line"/>
      <point x="368.1075" y="487.6" type="line"/>
      <point x="283.7425" y="324.75"/>
      <point x="216.8575" y="198.35"/>
      <point x="203.14249999999998" y="-135.15" type="curve"/>
      <point x="122.075" y="-135.15" type="line"/>
      <point x="141.7575" y="169.95"/>
      <point x="300.6275" y="434.9"/>
      <point x="345.325" y="501.1" type="curve"/>
      <point x="348.9275" y="471.6" type="line"/>
    </contour>
  </outline>
</glyph>
<glyph name="six.den" format="2">
  <advance width="236"/>
  <outline>
    <contour>
      <point x="194.51" y="335.65" type="line"/>
      <point x="116.475" y="321.9"/>
      <point x="75.4025" y="265.7"/>
      <point x="75.4025" y="141.35" type="curve" smooth="yes"/>
      <point x="75.4025" y="51.0"/>
      <point x="94.095" y="20.7"/>
      <point x="118.2375" y="20.7" type="curve" smooth="yes"/>
      <point x="145.93" y="20.7"/>
      <point x="160.195" y="55.89027874564442"/>
      <point x="160.195" y="115.85" type="curve" smooth="yes"/>
      <point x="160.195" y="169.23067567567568"/>
      <point x="148.8625" y="203.2"/>
      <point x="123.225" y="203.2" type="curve" smooth="yes"/>
      <point x="97.55499999999999" y="203.2"/>
      <point x="77.5625" y="173.95"/>
      <point x="67.13499999999999" y="133.9" type="curve"/>
      <point x="63.5025" y="154.05" type="line"/>
      <point x="72.73921263640125" y="190.312443207445"/>
      <point x="98.33404205606999" y="229.75"/>
      <point x="138.9125" y="229.75" type="curve" smooth="yes"/>
      <point x="186.1025" y="229.75"/>
      <point x="220.9525" y="188.65"/>
      <point x="220.9525" y="118.1" type="curve" smooth="yes"/>
      <point x="220.9525" y="44.00200000000025"/>
      <point x="180.2125" y="-6.0"/>
      <point x="121.9375" y="-6.0" type="curve" smooth="yes"/>
      <point x="58.8225" y="-6.0"/>
      <point x="15.2" y="42.45"/>
      <point x="15.2" y="142.15" type="curve" smooth="yes"/>
      <point x="15.2" y="251.45"/>
      <point x="78.7975" y="345.1"/>
      <point x="190.865" y="359.5" type="curve"/>
    </contour>
  </outline>
</glyph>
<glyph name="six.old" format="2">
  <advance width="393"/>
  <outline>
    <contour>
      <point x="319.2925" y="711.75" type="line"/>
      <point x="189.93" y="678.55"/>
      <point x="105.23249999999999" y="501.55"/>
      <point x="105.23249999999999" y="294.5" type="curve" smooth="yes"/>
      <point x="105.23249999999999" y="101.1"/>
      <point x="145.2" y="23.0"/>
      <point x="202.4825" y="23.0" type="curve" smooth="yes"/>
      <point x="256.66" y="23.0"/>
      <point x="290.5225" y="105.05"/>
      <point x="290.5225" y="229.0" type="curve" smooth="yes"/>
      <point x="290.5225" y="343.25"/>
      <point x="266.27" y="418.1"/>
      <point x="208.17" y="418.1" type="curve" smooth="yes"/>
      <point x="157.4525" y="418.1"/>
      <point x="114.58500000000001" y="350.05"/>
      <point x="93.2025" y="270.05" type="curve"/>
      <point x="94.0525" y="280.5"/>
      <point x="87.94749999999999" y="292.8"/>
      <point x="86.11999999999999" y="298.5" type="curve"/>
      <point x="104.45750000000001" y="373.7"/>
      <point x="153.6375" y="453.0"/>
      <point x="228.23" y="453.0" type="curve" smooth="yes"/>
      <point x="309.8525" y="453.0"/>
      <point x="371.5575" y="369.45"/>
      <point x="371.5575" y="229.45" type="curve" smooth="yes"/>
      <point x="371.5575" y="90.45"/>
      <point x="300.285" y="-10.0"/>
      <point x="203.1275" y="-10.0" type="curve" smooth="yes"/>
      <point x="102.0475" y="-10.0"/>
      <point x="25.497500000000002" y="91.5"/>
      <point x="25.497500000000002" y="295.0" type="curve" smooth="yes"/>
      <point x="25.497500000000002" y="513.0"/>
      <point x="142.3275" y="701.7"/>
      <point x="315.025" y="740.0" type="curve"/>
    </contour>
  </outline>
</glyph>
<glyph name="slash.uc" format="2">
  <advance width="271"/>
  <outline>
    <contour>
      <point x="231" y="749" type="line"/>
      <point x="-1" y="-39" type="line"/>
      <point x="34" y="-39" type="line"/>
      <point x="266" y="749" type="line"/>
    </contour>
  </outline>
</glyph>
<glyph name="sterling.altprop" format="2">
  <advance width="423"/>
  <outline>
    <contour>
      <point x="29.615000000000002" y="361.8" type="line"/>
      <point x="29.615000000000002" y="325.8" type="line"/>
      <point x="310.735" y="325.8" type="line"/>
      <point x="310.735" y="361.8" type="line"/>
    </contour>
    <contour>
      <point x="141.75" y="529.8" type="curve" smooth="yes"/>
      <point x="141.75" y="628.2367452829875"/>
      <point x="181.82584302328252" y="686.5"/>
      <point x="245.785" y="686.5" type="curve" smooth="yes"/>
      <point x="292.6715298507025" y="686.5"/>
      <point x="319.3915289456125" y="661.4047086229425"/>
      <point x="337.3375" y="629.8" type="curve"/>
      <point x="340.29030130873" y="650.1121501722976"/>
      <point x="333.10176057803" y="673.500059029485"/>
      <point x="311.84000000000003" y="675.4" type="curve"/>
      <point x="311.84000000000003" y="564.15" type="line"/>
      <point x="382.71500000000003" y="564.15" type="line"/>
      <point x="382.71500000000003" y="660.05" type="line"/>
      <point x="360.6275967003175" y="688.2874703707225"/>
      <point x="313.7036111110875" y="720.0"/>
      <point x="239.66750000000002" y="720.0" type="curve" smooth="yes"/>
      <point x="130.305376447905" y="720.0"/>
      <point x="60.725" y="639.627038461575"/>
      <point x="60.725" y="523.3" type="curve" smooth="yes"/>
      <point x="60.725" y="408.45"/>
      <point x="130.825" y="347.75"/>
      <point x="130.825" y="235.2" type="curve" smooth="yes"/>
      <point x="130.825" y="138.4"/>
      <point x="76.045" y="85.3"/>
      <point x="26.81" y="42.7" type="curve"/>
      <point x="26.81" y="0.0" type="line"/>
      <point x="390.155" y="0.0" type="line"/>
      <point x="390.155" y="244.3" type="line"/>
      <point x="361.1825" y="244.3" type="line"/>
      <point x="348.4" y="134.45" type="line" smooth="yes"/>
      <point x="343.1225" y="89.9"/>
      <point x="320.84" y="76.25"/>
      <point x="261.4575" y="76.25" type="curve"/>
      <point x="89.635" y="76.25" type="line"/>
      <point x="73.595" y="44.25" type="line"/>
      <point x="141.45" y="80.95"/>
      <point x="185.61" y="165.5"/>
      <point x="185.61" y="256.25" type="curve" smooth="yes"/>
      <point x="185.61" y="364.0"/>
      <point x="141.75" y="415.7"/>
    </contour>
  </outline>
</glyph>
<glyph name="three.old" format="2">
  <advance width="393"/>
  <outline>
    <contour>
      <point x="184.68" y="-116.5" type="curve" smooth="yes"/>
      <point x="250.5875" y="-116.5"/>
      <point x="287.835" y="-55.65"/>
      <point x="287.835" y="52.55" type="curve" smooth="yes"/>
      <point x="287.835" y="146.05"/>
      <point x="255.8325" y="207.45"/>
      <point x="170.33" y="207.45" type="curve" smooth="yes"/>
      <point x="122.6325" y="207.45" type="line"/>
      <point x="122.6325" y="240.5" type="line"/>
      <point x="161.8575" y="240.5" type="line" smooth="yes"/>
      <point x="231.1725" y="240.5"/>
      <point x="271.2475" y="288.85"/>
      <point x="271.2475" y="384.25" type="curve" smooth="yes"/>
      <point x="271.2475" y="470.5"/>
      <point x="240.4725" y="521.9"/>
      <point x="185.5" y="521.9" type="curve" smooth="yes"/>
      <point x="134.46" y="521.9"/>
      <point x="105.1125" y="489.65"/>
      <point x="88.7525" y="445.85" type="curve"/>
      <point x="90.1075" y="475.4"/>
      <point x="98.695" y="502.6"/>
      <point x="116.7125" y="506.55" type="curve"/>
      <point x="116.7125" y="386.7" type="line"/>
      <point x="46.16" y="386.7" type="line"/>
      <point x="46.16" y="475.55" type="line"/>
      <point x="69.1225" y="510.7"/>
      <point x="122.4725" y="558.0"/>
      <point x="193.8625" y="558.0" type="curve" smooth="yes"/>
      <point x="283.2575" y="558.0"/>
      <point x="348.3375" y="495.7"/>
      <point x="348.3375" y="395.7" type="curve" smooth="yes"/>
      <point x="348.3375" y="292.6"/>
      <point x="270.7675" y="220.75"/>
      <point x="168.5025" y="220.75" type="curve"/>
      <point x="181.4025" y="231.25" type="line"/>
      <point x="318.495" y="231.25"/>
      <point x="367.5475" y="151.9"/>
      <point x="367.5475" y="52.1" type="curve" smooth="yes"/>
      <point x="367.5475" y="-67.75"/>
      <point x="293.2125" y="-150.0"/>
      <point x="191.745" y="-150.0" type="curve" smooth="yes"/>
      <point x="97.865" y="-150.0"/>
      <point x="39.8825" y="-83.7"/>
      <point x="15.5" y="9.75" type="curve"/>
      <point x="40.5175" y="33.45" type="line"/>
      <point x="59.555" y="-46.3"/>
      <point x="105.285" y="-116.5"/>
    </contour>
  </outline>
</glyph>
<glyph name="two.den" format="2">
  <advance width="233"/>
  <outline>
    <contour>
      <point x="140.2525" y="57.7" type="line" smooth="yes"/>
      <point x="176.18" y="57.7"/>
      <point x="183.4025" y="61.7"/>
      <point x="185.725" y="80.9" type="curve" smooth="yes"/>
      <point x="191.0025" y="126.0" type="line"/>
      <point x="212.945" y="126.0" type="line"/>
      <point x="212.945" y="0.0" type="line"/>
      <point x="17.705" y="0.0" type="line"/>
      <point x="17.705" y="42.85" type="line"/>
      <point x="103.66" y="112.1"/>
      <point x="143.01500000000001" y="162.55"/>
      <point x="143.01500000000001" y="249.2" type="curve" smooth="yes"/>
      <point x="143.01500000000001" y="300.3"/>
      <point x="129.0825" y="321.0"/>
      <point x="104.7675" y="321.0" type="curve" smooth="yes"/>
      <point x="79.785" y="321.0"/>
      <point x="62.2975" y="303.35"/>
      <point x="52.665" y="277.75" type="curve"/>
      <point x="53.515" y="293.8"/>
      <point x="58.265" y="310.25"/>
      <point x="69.7875" y="311.3" type="curve"/>
      <point x="69.7875" y="247.3" type="line"/>
      <point x="21.66" y="247.3" type="line"/>
      <point x="21.66" y="298.85" type="line"/>
      <point x="37.5275" y="322.9"/>
      <point x="68.0675" y="347.9"/>
      <point x="110.475" y="347.9" type="curve" smooth="yes"/>
      <point x="171.15" y="347.9"/>
      <point x="204.3675" y="312.45"/>
      <point x="204.3675" y="247.2" type="curve" smooth="yes"/>
      <point x="204.3675" y="161.55"/>
      <point x="115.91499999999999" y="90.05"/>
      <point x="42.87" y="39.7" type="curve"/>
      <point x="41.1075" y="39.7"/>
      <point x="49.04" y="57.5"/>
      <point x="49.04" y="57.7" type="curve"/>
    </contour>
  </outline>
</glyph>
<glyph name="two.linprop" format="2">
  <advance width="415"/>
  <outline>
    <contour>
      <point x="265" y="75" type="line" smooth="yes"/>
      <point x="325" y="75"/>
      <point x="339" y="86"/>
      <point x="348" y="131" type="curve" smooth="yes"/>
      <point x="361" y="194" type="line"/>
      <point x="385" y="194" type="line"/>
      <point x="385" y="0" type="line"/>
      <point x="35" y="0" type="line"/>
      <point x="35" y="45" type="line"/>
      <point x="172" y="194"/>
      <point x="286" y="310"/>
      <point x="286" y="523" type="curve" smooth="yes"/>
      <point x="286" y="660"/>
      <point x="241" y="690"/>
      <point x="183" y="690" type="curve" smooth="yes"/>
      <point x="137" y="690"/>
      <point x="103" y="671"/>
      <point x="85" y="627" type="curve"/>
      <point x="87" y="642"/>
      <point x="102" y="685"/>
      <point x="118" y="687" type="curve"/>
      <point x="118" y="559" type="line"/>
      <point x="48" y="559" type="line"/>
      <point x="48" y="650" type="line"/>
      <point x="71" y="683"/>
      <point x="120" y="720"/>
      <point x="193" y="720" type="curve" smooth="yes"/>
      <point x="281" y="720"/>
      <point x="368" y="667"/>
      <point x="368" y="523" type="curve" smooth="yes"/>
      <point x="368" y="318"/>
      <point x="193" y="170"/>
      <point x="64" y="39" type="curve"/>
      <point x="61" y="42"/>
      <point x="82" y="68"/>
      <point x="84" y="75" type="curve"/>
    </contour>
  </outline>
</glyph>
<glyph name="two.oldprop" format="2">
  <advance width="395"/>
  <outline>
    <contour>
      <point x="245" y="75" type="line" smooth="yes"/>
      <point x="305" y="75"/>
      <point x="319" y="86"/>
      <point x="328" y="131" type="curve" smooth="yes"/>
      <point x="341" y="194" type="line"/>
      <point x="365" y="194" type="line"/>
      <point x="365" y="0" type="line"/>
      <point x="35" y="0" type="line"/>
      <point x="35" y="45" type="line"/>
      <point x="168" y="143"/>
      <point x="267" y="235"/>
      <point x="267.0" y="398" type="curve" smooth="yes"/>
      <point x="267" y="490"/>
      <point x="235" y="528"/>
      <point x="178" y="528.0" type="curve" smooth="yes"/>
      <point x="135" y="528"/>
      <point x="103" y="507"/>
      <point x="85" y="463" type="curve"/>
      <point x="87" y="478"/>
      <point x="102" y="513"/>
      <point x="118" y="515" type="curve"/>
      <point x="118" y="397" type="line"/>
      <point x="48" y="397" type="line"/>
      <point x="48" y="488" type="line"/>
      <point x="71" y="523"/>
      <point x="119" y="558"/>
      <point x="190" y="558.0" type="curve" smooth="yes"/>
      <point x="276" y="558"/>
      <point x="349" y="506"/>
      <point x="349.0" y="398" type="curve" smooth="yes"/>
      <point x="349" y="237"/>
      <point x="189" y="119"/>
      <point x="64" y="39" type="curve"/>
      <point x="61" y="42"/>
      <point x="82" y="68"/>
      <point x="84" y="75" type="curve"/>
    </contour>
  </outline>
</glyph>
<glyph name="whitecircle" format="2">
  <advance width="415"/>
  <outline>
    <contour>
      <point x="207.6" y="80.0" type="curve" smooth="yes"/>
      <point x="296.2" y="80.0"/>
      <point x="366.45" y="177.0"/>
      <point x="366.45" y="304.0" type="curve" smooth="yes"/>
      <point x="366.45" y="431.0"/>
      <point x="296.2" y="528.0"/>
      <point x="207.6" y="528.0" type="curve" smooth="yes"/>
      <point x="119.0" y="528.0"/>
      <point x="49.6" y="431.0"/>
      <point x="49.6" y="304.0" type="curve" smooth="yes"/>
      <point x="49.6" y="177.0"/>
      <point x="119.0" y="80.0"/>
    </contour>
    <contour>
      <point x="207.6" y="118.0" type="curve" smooth="yes"/>
      <point x="132.9" y="118.0"/>
      <point x="77.85" y="193.93903743315508"/>
      <point x="77.85" y="304.0" type="curve" smooth="yes"/>
      <point x="77.85" y="414.0609625668449"/>
      <point x="132.9" y="490.0"/>
      <point x="207.6" y="490.0" type="curve" smooth="yes"/>
      <point x="283.21290322580643" y="490.0"/>
      <point x="338.2" y="415.0"/>
      <point x="338.2" y="304.0" type="curve" smooth="yes"/>
      <point x="338.2" y="193.93903743315508"/>
      <point x="283.15" y="118.0"/>
    </contour>
  </outline>
</glyph>
<glyph name="whitedownpointingtriangle" format="2">
  <advance width="453"/>
  <outline>
    <contour>
      <point x="38.85" y="464.0" type="line"/>
      <point x="225.95" y="91.0" type="line"/>
      <point x="414.9" y="464.0" type="line"/>
    </contour>
    <contour>
      <point x="229.1" y="155.0" type="line"/>
      <point x="90.75" y="431.0" type="line"/>
      <point x="87.6" y="426.0" type="line"/>
      <point x="364.3" y="426.0" type="line"/>
      <point x="362.0" y="431.0" type="line"/>
      <point x="223.8" y="155.0" type="line"/>
    </contour>
  </outline>
</glyph>
<glyph name="whitesquare" format="2">
  <advance width="413"/>
  <outline>
    <contour>
      <point x="59.5" y="104.0" type="line"/>
      <point x="353.4" y="104.0" type="line"/>
      <point x="353.4" y="522.0" type="line"/>
      <point x="59.5" y="522.0" type="line"/>
    </contour>
    <contour>
      <point x="86.45" y="142.0" type="line"/>
      <point x="86.45" y="484.0" type="line"/>
      <point x="326.45" y="484.0" type="line"/>
      <point x="326.45" y="142.0" type="line"/>
    </contour>
  </outline>
</glyph>
<glyph name="zero.lin" format="2">
  <advance width="393"/>
  <outline>
    <contour>
      <point x="196.7" y="-11.0" type="curve" smooth="yes"/>
      <point x="298.6680422794025" y="-11.0"/>
      <point x="370.2025" y="126.0"/>
      <point x="370.2025" y="354.0" type="curve" smooth="yes"/>
      <point x="370.2025" y="583.05"/>
      <point x="298.6680422794025" y="720.0"/>
      <point x="196.7" y="720.0" type="curve" smooth="yes"/>
      <point x="94.7319577205975" y="720.0"/>
      <point x="23.197499999999998" y="583.05"/>
      <point x="23.197499999999998" y="354.0" type="curve" smooth="yes"/>
      <point x="23.197499999999998" y="126.0"/>
      <point x="94.7319577205975" y="-11.0"/>
    </contour>
    <contour>
      <point x="196.7" y="22.25" type="curve" smooth="yes"/>
      <point x="134.713" y="22.25"/>
      <point x="104.5325" y="138.3"/>
      <point x="104.5325" y="354.0" type="curve" smooth="yes"/>
      <point x="104.5325" y="569.9"/>
      <point x="134.713" y="686.75"/>
      <point x="196.7" y="686.75" type="curve" smooth="yes"/>
      <point x="258.8325" y="686.75"/>
      <point x="288.8675" y="569.9"/>
      <point x="288.8675" y="354.0" type="curve" smooth="yes"/>
      <point x="288.8675" y="138.3"/>
      <point x="258.687" y="22.25"/>
    </contour>
  </outline>
</glyph>
<glyph name="zero.linprop" format="2">
  <advance width="392"/>
  <outline>
    <contour>
      <point x="196" y="-10" type="curve" smooth="yes"/>
      <point x="297" y="-10"/>
      <point x="370" y="109"/>
      <point x="370" y="355" type="curve" smooth="yes"/>
      <point x="370" y="599"/>
      <point x="297" y="720"/>
      <point x="196" y="720" type="curve" smooth="yes"/>
      <point x="95" y="720"/>
      <point x="22" y="599"/>
      <point x="22" y="355" type="curve" smooth="yes"/>
      <point x="22" y="109"/>
      <point x="95" y="-10"/>
    </contour>
    <contour>
      <point x="196" y="23" type="curve" smooth="yes"/>
      <point x="132" y="23"/>
      <point x="104" y="121"/>
      <point x="104" y="355" type="curve" smooth="yes"/>
      <point x="104" y="587"/>
      <point x="132" y="687"/>
      <point x="196" y="687" type="curve" smooth="yes"/>
      <point x="259" y="687"/>
      <point x="288" y="587"/>
      <point x="288" y="355" type="curve" smooth="yes"/>
      <point x="288" y="121"/>
      <point x="259" y="23"/>
    </contour>
  </outline>
</glyph>
<glyph name="zero.old" format="2">
  <advance width="393"/>
  <outline>
    <contour>
      <point x="196.7" y="-11.95" type="curve" smooth="yes"/>
      <point x="299.6455422794025" y="-11.95"/>
      <point x="372.03" y="108.35"/>
      <point x="372.03" y="273.0" type="curve" smooth="yes"/>
      <point x="372.03" y="437.7"/>
      <point x="299.6455422794025" y="558.0"/>
      <point x="196.7" y="558.0" type="curve" smooth="yes"/>
      <point x="93.8819577205975" y="558.0"/>
      <point x="21.37" y="437.7"/>
      <point x="21.37" y="273.0" type="curve" smooth="yes"/>
      <point x="21.37" y="108.35"/>
      <point x="93.8819577205975" y="-11.95"/>
    </contour>
    <contour>
      <point x="197.69" y="21.3" type="curve" smooth="yes"/>
      <point x="135.817403973515" y="21.3"/>
      <point x="102.70499999999998" y="119.75"/>
      <point x="102.70499999999998" y="273.0" type="curve" smooth="yes"/>
      <point x="102.70499999999998" y="426.3"/>
      <point x="135.649403973515" y="524.75"/>
      <point x="196.7" y="524.75" type="curve" smooth="yes"/>
      <point x="257.750596026485" y="524.75"/>
      <point x="290.695" y="426.3"/>
      <point x="290.695" y="273.0" type="curve" smooth="yes"/>
      <point x="290.695" y="119.75"/>
      <point x="258.055096026485" y="21.3"/>
    </contour>
  </outline>
</glyph>
<glyph name="zero.slashold" format="2">
  <advance width="393"/>
  <outline>
    <contour>
      <point x="197.0" y="-10.0" type="curve" smooth="yes"/>
      <point x="298.0" y="-10.0"/>
      <point x="372.0" y="83.0"/>
      <point x="372.0" y="274.0" type="curve" smooth="yes"/>
      <point x="372.0" y="465.0"/>
      <point x="298.0" y="558.0"/>
      <point x="197.0" y="558.0" type="curve" smooth="yes"/>
      <point x="95.0" y="558.0"/>
      <point x="21.0" y="465.0"/>
      <point x="21.0" y="274.0" type="curve" smooth="yes"/>
      <point x="21.0" y="83.0"/>
      <point x="95.0" y="-10.0"/>
    </contour>
    <contour>
      <point x="197.0" y="23.0" type="curve" smooth="yes"/>
      <point x="132.0" y="23.0"/>
      <point x="103.0" y="93.0"/>
      <point x="103.0" y="274.0" type="curve" smooth="yes"/>
      <point x="103.0" y="455.0"/>
      <point x="132.0" y="525.0"/>
      <point x="197.0" y="525.0" type="curve" smooth="yes"/>
      <point x="261.0" y="525.0"/>
      <point x="290.0" y="455.0"/>
      <point x="290.0" y="274.0" type="curve" smooth="yes"/>
      <point x="290.0" y="93.0"/>
      <point x="261.0" y="23.0"/>
    </contour>
    <contour>
      <point x="96.5" y="109.0" type="line"/>
      <point x="312.5" y="416.0" type="line"/>
      <point x="296.5" y="439.0" type="line"/>
      <point x="80.5" y="132.0" type="line"/>
    </contour>
  </outline>
</glyph>
